<?xml version="1.0" encoding="UTF-8" standalone="no"?>
<!-- Created with Inkscape (http://www.inkscape.org/) -->
<svg
   xmlns:svg="http://www.w3.org/2000/svg"
   xmlns="http://www.w3.org/2000/svg"
   version="1.0"
   width="382"
   height="180"
   id="svg3729">
  <defs
     id="defs3731" />
  <g
     transform="translate(-216.78571,60.030671)"
     id="layer1">
    <g
       transform="matrix(0.4672489,0,0,0.4672489,153.92274,-114.8385)"
       id="g12342"
       style="fill:#7fa100;fill-opacity:1">
      <path
         d="M 441.60722,209.11412 L 378.14523,141.09366"
         id="path12344"
         style="fill:#7fa100;fill-opacity:1;fill-rule:evenodd;stroke:#000000;stroke-width:4.99947691;stroke-linecap:butt;stroke-linejoin:miter;stroke-miterlimit:4;stroke-dasharray:none;stroke-opacity:1" />
      <path
         d="M 358.37349,287.05117 L 311.55824,210.70733"
         id="path12346"
         style="fill:#7fa100;fill-opacity:1;fill-rule:evenodd;stroke:#000000;stroke-width:4.99947691;stroke-linecap:butt;stroke-linejoin:miter;stroke-miterlimit:4;stroke-dasharray:none;stroke-opacity:1" />
      <path
         d="M 312.21658,212.1408 L 266.91468,287.13103"
         id="path12348"
         style="fill:#7fa100;fill-opacity:1;fill-rule:evenodd;stroke:#000000;stroke-width:4.99947691;stroke-linecap:butt;stroke-linejoin:miter;stroke-miterlimit:4;stroke-dasharray:none;stroke-opacity:1" />
      <path
         d="M 375.77689,205.33077 L 375.11854,138.82365"
         id="path12350"
         style="fill:#7fa100;fill-opacity:1;fill-rule:evenodd;stroke:#000000;stroke-width:4.99947691;stroke-linecap:butt;stroke-linejoin:miter;stroke-miterlimit:4;stroke-dasharray:none;stroke-opacity:1" />
      <path
         d="M 310.70324,210.62746 L 378.14523,138.82365"
         id="path12352"
         style="fill:#7fa100;fill-opacity:1;fill-rule:evenodd;stroke:#000000;stroke-width:4.99947691;stroke-linecap:butt;stroke-linejoin:miter;stroke-miterlimit:4;stroke-dasharray:none;stroke-opacity:1" />
      <path
         d="M 286.63396,286.13114 C 286.63396,296.62455 278.12737,305.13114 267.63396,305.13114 C 257.14055,305.13114 248.63396,296.62455 248.63396,286.13114 C 248.63396,275.63773 257.14055,267.13114 267.63396,267.13114 C 278.12737,267.13114 286.63396,275.63773 286.63396,286.13114 L 286.63396,286.13114 z"
         id="path12354"
         style="fill:#0000ff;fill-opacity:1;stroke:#000000;stroke-width:5;stroke-miterlimit:4;stroke-dasharray:none;stroke-opacity:1" />
      <path
         d="M 377.77376,286.13114 C 377.77376,296.62455 369.26717,305.13114 358.77376,305.13114 C 348.28035,305.13114 339.77376,296.62455 339.77376,286.13114 C 339.77376,275.63773 348.28035,267.13114 358.77376,267.13114 C 369.26717,267.13114 377.77376,275.63773 377.77376,286.13114 L 377.77376,286.13114 z"
         id="path12356"
         style="fill:#00ffff;fill-opacity:1;stroke:#000000;stroke-width:5;stroke-miterlimit:4;stroke-dasharray:none;stroke-opacity:1" />
      <g
         id="g12368"
         style="fill:#ff0000;fill-opacity:1">
        <path
           d="M 396.57384,138.799 C 396.57384,149.29241 388.06725,157.799 377.57384,157.799 C 367.08043,157.799 358.57384,149.29241 358.57384,138.799 C 358.57384,128.30559 367.08043,119.799 377.57384,119.799 C 388.06725,119.799 396.57384,128.30559 396.57384,138.799 L 396.57384,138.799 z"
           id="path12358"
           style="fill:#ff0000;fill-opacity:1;stroke:#000000;stroke-width:5;stroke-miterlimit:4;stroke-dasharray:none;stroke-opacity:1" />
        <path
           d="M 388.25045,138.799 C 388.25045,144.69553 383.47037,149.47562 377.57383,149.47562 C 371.67729,149.47562 366.89721,144.69553 366.89721,138.799 C 366.89721,132.90246 371.67729,128.12238 377.57383,128.12238 C 383.47037,128.12238 388.25045,132.90246 388.25045,138.799 L 388.25045,138.799 z"
           id="path12366"
           style="fill:#ff0000;fill-opacity:1;stroke:#000000;stroke-width:4.99999952;stroke-miterlimit:4;stroke-dasharray:none;stroke-opacity:1" />
      </g>
      <path
         d="M 332.20385,209.61925 C 332.20385,220.11266 323.69726,228.61925 313.20385,228.61925 C 302.71044,228.61925 294.20385,220.11266 294.20385,209.61925 C 294.20385,199.12584 302.71044,190.61925 313.20385,190.61925 C 323.69726,190.61925 332.20385,199.12584 332.20385,209.61925 L 332.20385,209.61925 z"
         id="path12360"
         style="fill:#00ff00;fill-opacity:1;stroke:#000000;stroke-width:5;stroke-miterlimit:4;stroke-dasharray:none;stroke-opacity:1" />
      <path
         d="M 396.83232,209.61925 C 396.83232,220.11266 388.32573,228.61925 377.83232,228.61925 C 367.33891,228.61925 358.83232,220.11266 358.83232,209.61925 C 358.83232,199.12584 367.33891,190.61925 377.83232,190.61925 C 388.32573,190.61925 396.83232,199.12584 396.83232,209.61925 L 396.83232,209.61925 z"
         id="path12362"
         style="fill:#ffff00;fill-opacity:1;stroke:#000000;stroke-width:5;stroke-miterlimit:4;stroke-dasharray:none;stroke-opacity:1" />
      <path
         d="M 463.36396,209.61925 C 463.36396,220.11266 454.85737,228.61925 444.36396,228.61925 C 433.87055,228.61925 425.36396,220.11266 425.36396,209.61925 C 425.36396,199.12584 433.87055,190.61925 444.36396,190.61925 C 454.85737,190.61925 463.36396,199.12584 463.36396,209.61925 L 463.36396,209.61925 z"
         id="path12364"
         style="fill:#ff00ff;fill-opacity:1;stroke:#000000;stroke-width:5;stroke-miterlimit:4;stroke-dasharray:none;stroke-opacity:1" />
    </g>
    <g
       id="g3830">
      <path
         d="M 17.734375,118.37387 C 15.96353,118.37389 14.557282,118.97936 13.515625,120.19028 C 12.486971,121.40123 11.972649,123.06138 11.972656,125.17075 C 11.972649,127.26711 12.486971,128.92726 13.515625,130.15122 C 14.557282,131.36216 15.96353,131.96763 17.734375,131.96762 C 19.505193,131.96763 20.904932,131.36216 21.933594,130.15122 C 22.975242,128.92726 23.496075,127.26711 23.496094,125.17075 C 23.496075,123.06138 22.975242,121.40123 21.933594,120.19028 C 20.904932,118.97936 19.505193,118.37389 17.734375,118.37387 M 25.566406,106.01059 L 25.566406,109.60434 C 24.576803,109.13562 23.5742,108.77754 22.558594,108.53012 C 21.555973,108.28275 20.55988,108.15906 19.570312,108.15903 C 16.966133,108.15906 14.973948,109.03796 13.59375,110.79575 C 12.226555,112.55358 11.445306,115.20983 11.25,118.7645 C 12.018222,117.6317 12.981762,116.76582 14.140625,116.16684 C 15.299468,115.55488 16.575509,115.24889 17.96875,115.24887 C 20.898421,115.24889 23.209617,116.14082 24.902344,117.92465 C 26.608051,119.6955 27.460915,122.11086 27.460938,125.17075 C 27.460915,128.16555 26.575499,130.56789 24.804688,132.37778 C 23.033836,134.18768 20.677067,135.09262 17.734375,135.09262 C 14.361969,135.09262 11.783847,133.80356 10,131.22544 C 8.2161421,128.6343 7.324216,124.8843 7.3242188,119.97544 C 7.324216,115.36608 8.4179649,111.69421 10.605469,108.95981 C 12.79296,106.21244 15.729155,104.83875 19.414062,104.83872 C 20.40363,104.83875 21.399723,104.9364 22.402344,105.13169 C 23.41795,105.32703 24.472636,105.62 25.566406,106.01059 M 58.964844,118.80356 C 60.852846,119.20722 62.324199,120.04706 63.378906,121.32309 C 64.446593,122.59915 64.980447,124.17466 64.980469,126.04965 C 64.980447,128.92726 63.990864,131.15382 62.011719,132.72934 C 60.032535,134.30486 57.220038,135.09262 53.574219,135.09262 C 52.350251,135.09262 51.087231,134.96892 49.785156,134.72153 C 48.496088,134.48715 47.161454,134.12908 45.78125,133.64731 L 45.78125,129.83872 C 46.874996,130.47674 48.072911,130.95851 49.375,131.28403 C 50.677075,131.60955 52.037751,131.77231 53.457031,131.77231 C 55.930976,131.77231 57.812485,131.28403 59.101562,130.30747 C 60.403628,129.33091 61.054669,127.91164 61.054688,126.04965 C 61.054669,124.33091 60.449201,122.98977 59.238281,122.02622 C 58.040349,121.04967 56.367174,120.56139 54.21875,120.56137 L 50.820312,120.56137 L 50.820312,117.31919 L 54.375,117.31919 C 56.315091,117.3192 57.799464,116.93509 58.828125,116.16684 C 59.856754,115.38561 60.371076,114.26582 60.371094,112.80747 C 60.371076,111.31009 59.837222,110.16426 58.769531,109.36997 C 57.714829,108.5627 56.197903,108.15906 54.21875,108.15903 C 53.13801,108.15906 51.979157,108.27624 50.742188,108.51059 C 49.505202,108.74499 48.144526,109.10958 46.660156,109.60434 L 46.660156,106.08872 C 48.157547,105.67208 49.557285,105.35958 50.859375,105.15122 C 52.17447,104.94291 53.411448,104.83875 54.570312,104.83872 C 57.565089,104.83875 59.934879,105.52234 61.679688,106.8895 C 63.424458,108.24369 64.296853,110.07963 64.296875,112.39731 C 64.296853,114.01191 63.834614,115.3791 62.910156,116.49887 C 61.985658,117.60566 60.670555,118.37389 58.964844,118.80356 M 85.898438,131.2059 L 92.34375,131.2059 L 92.34375,108.95981 L 85.332031,110.36606 L 85.332031,106.77231 L 92.304688,105.36606 L 96.25,105.36606 L 96.25,131.2059 L 102.69531,131.2059 L 102.69531,134.52622 L 85.898438,134.52622 L 85.898438,131.2059 M 124.10156,131.2059 L 130.54688,131.2059 L 130.54688,108.95981 L 123.53516,110.36606 L 123.53516,106.77231 L 130.50781,105.36606 L 134.45312,105.36606 L 134.45312,131.2059 L 140.89844,131.2059 L 140.89844,134.52622 L 124.10156,134.52622 L 124.10156,131.2059 M 162.30469,131.2059 L 168.75,131.2059 L 168.75,108.95981 L 161.73828,110.36606 L 161.73828,106.77231 L 168.71094,105.36606 L 172.65625,105.36606 L 172.65625,131.2059 L 179.10156,131.2059 L 179.10156,134.52622 L 162.30469,134.52622 L 162.30469,131.2059 M 200.50781,131.2059 L 206.95312,131.2059 L 206.95312,108.95981 L 199.94141,110.36606 L 199.94141,106.77231 L 206.91406,105.36606 L 210.85938,105.36606 L 210.85938,131.2059 L 217.30469,131.2059 L 217.30469,134.52622 L 200.50781,134.52622 L 200.50781,131.2059"
         transform="translate(215.20295,-53.016655)"
         id="flowRoot2935"
         style="font-size:40px;font-style:normal;font-weight:normal;fill:#000000;fill-opacity:1;stroke:none;stroke-width:1px;stroke-linecap:butt;stroke-linejoin:miter;stroke-opacity:1;font-family:Bitstream Vera Sans" />
      <path
         d="M 294.64285,92.540755 L 322.49999,92.540755"
         id="path2947"
         style="fill:none;fill-rule:evenodd;stroke:#0000ff;stroke-width:5;stroke-linecap:butt;stroke-linejoin:miter;stroke-miterlimit:4;stroke-dasharray:none;stroke-opacity:1" />
      <path
         d="M 333.21427,92.540755 L 361.07142,92.540755"
         id="path3719"
         style="fill:none;fill-rule:evenodd;stroke:#00ffff;stroke-width:5;stroke-linecap:butt;stroke-linejoin:miter;stroke-miterlimit:4;stroke-dasharray:none;stroke-opacity:1" />
      <path
         d="M 371.42856,92.540755 L 399.28571,92.540755"
         id="path3721"
         style="fill:#ff00ff;fill-opacity:1;fill-rule:evenodd;stroke:#ffff00;stroke-width:5;stroke-linecap:butt;stroke-linejoin:miter;stroke-miterlimit:4;stroke-dasharray:none;stroke-opacity:1" />
      <path
         d="M 409.99999,92.540755 L 437.85714,92.540755"
         id="path3723"
         style="fill:none;fill-rule:evenodd;stroke:#ff00ff;stroke-width:5;stroke-linecap:butt;stroke-linejoin:miter;stroke-miterlimit:4;stroke-dasharray:none;stroke-opacity:1" />
      <path
         d="M 257.57142,104.54076 L 361.85714,104.54076"
         id="path3725"
         style="fill:none;fill-rule:evenodd;stroke:#00ff00;stroke-width:5;stroke-linecap:butt;stroke-linejoin:miter;stroke-miterlimit:4;stroke-dasharray:none;stroke-opacity:1" />
      <path
         d="M 219.28571,116.54076 L 437.85714,116.54076"
         id="path3727"
         style="fill:none;fill-rule:evenodd;stroke:#ff0000;stroke-width:5;stroke-linecap:butt;stroke-linejoin:miter;stroke-miterlimit:4;stroke-dasharray:none;stroke-opacity:1" />
    </g>
    <g
       transform="translate(87.998245,17.920899)"
       id="g3794">
      <g
         id="g3821">
        <path
           d="M 477.17688,-31.72574 L 455.30251,-67.397315"
           id="path3784"
           style="fill:#7fa100;fill-opacity:1;fill-rule:evenodd;stroke:#000000;stroke-width:2.3360002;stroke-linecap:butt;stroke-linejoin:miter;stroke-miterlimit:4;stroke-dasharray:none;stroke-opacity:1" />
        <path
           d="M 455.61012,-66.727528 L 434.44286,-31.688425"
           id="path3786"
           style="fill:#7fa100;fill-opacity:1;fill-rule:evenodd;stroke:#000000;stroke-width:2.3360002;stroke-linecap:butt;stroke-linejoin:miter;stroke-miterlimit:4;stroke-dasharray:none;stroke-opacity:1" />
        <path
           d="M 443.65667,-32.155623 C 443.65667,-27.252589 439.68197,-23.277894 434.77894,-23.277894 C 429.8759,-23.277894 425.90121,-27.252589 425.90121,-32.155623 C 425.90121,-37.058657 429.8759,-41.033352 434.77894,-41.033352 C 439.68197,-41.033352 443.65667,-37.058657 443.65667,-32.155623 L 443.65667,-32.155623 z"
           id="path3788"
           style="fill:#0000ff;fill-opacity:1;stroke:#000000;stroke-width:2.33624458;stroke-miterlimit:4;stroke-dasharray:none;stroke-opacity:1" />
        <path
           d="M 486.24164,-32.155623 C 486.24164,-27.252589 482.26694,-23.277894 477.36391,-23.277894 C 472.46088,-23.277894 468.48618,-27.252589 468.48618,-32.155623 C 468.48618,-37.058657 472.46088,-41.033352 477.36391,-41.033352 C 482.26694,-41.033352 486.24164,-37.058657 486.24164,-32.155623 L 486.24164,-32.155623 z"
           id="path3790"
           style="fill:#00ffff;fill-opacity:1;stroke:#000000;stroke-width:2.33624458;stroke-miterlimit:4;stroke-dasharray:none;stroke-opacity:1" />
        <g
           id="g3817">
          <path
             d="M 464.94915,-67.905719 C 464.94915,-63.002685 460.97445,-59.02799 456.07142,-59.02799 C 451.16839,-59.02799 447.19369,-63.002685 447.19369,-67.905719 C 447.19369,-72.808754 451.16839,-76.783448 456.07142,-76.783448 C 460.97445,-76.783448 464.94915,-72.808754 464.94915,-67.905719 L 464.94915,-67.905719 z"
             id="path3792"
             style="fill:#00ff00;fill-opacity:1;stroke:#000000;stroke-width:2.33624458;stroke-miterlimit:4;stroke-dasharray:none;stroke-opacity:1" />
          <path
             d="M 461.06006,-67.905719 C 461.06006,-65.150572 458.82658,-62.91708 456.07142,-62.91708 C 453.31627,-62.91708 451.08279,-65.150572 451.08279,-67.905719 C 451.08279,-70.660871 453.31627,-72.894358 456.07142,-72.894358 C 458.82658,-72.894358 461.06006,-70.660871 461.06006,-67.905719 L 461.06006,-67.905719 z"
             id="path3815"
             style="fill:#00ff00;fill-opacity:1;stroke:#000000;stroke-width:2.33624434;stroke-miterlimit:4;stroke-dasharray:none;stroke-opacity:1" />
        </g>
      </g>
    </g>
    <g
       transform="translate(0,41.416254)"
       id="g3809">
      <path
         d="M 508.52318,24.370651 C 510.41119,24.774311 511.88254,25.614151 512.93725,26.890181 C 514.00493,28.166241 514.53879,29.741751 514.53881,31.616741 C 514.53879,34.494351 513.5492,36.720911 511.57006,38.296431 C 509.59088,39.871951 506.77838,40.659711 503.13256,40.659711 C 501.90859,40.659711 500.64557,40.536011 499.3435,40.288621 C 498.05443,40.054241 496.71979,39.696171 495.33959,39.214401 L 495.33959,35.405811 C 496.43334,36.043831 497.63125,36.525601 498.93334,36.851121 C 500.23542,37.176641 501.59609,37.339401 503.01537,37.339401 C 505.48932,37.339401 507.37083,36.851121 508.6599,35.874561 C 509.96197,34.898001 510.61301,33.478731 510.61303,31.616741 C 510.61301,29.898001 510.00754,28.556861 508.79662,27.593311 C 507.59869,26.616761 505.92551,26.128481 503.77709,26.128461 L 500.37865,26.128461 L 500.37865,22.886281 L 503.93334,22.886281 C 505.87343,22.886291 507.3578,22.502181 508.38647,21.733931 C 509.41509,20.952701 509.92942,19.832911 509.92943,18.374561 C 509.92942,16.877181 509.39556,15.731351 508.32787,14.937061 C 507.27317,14.129791 505.75624,13.726151 503.77709,13.726121 C 502.69635,13.726151 501.5375,13.843331 500.30053,14.077681 C 499.06354,14.312081 497.70287,14.676671 496.2185,15.171431 L 496.2185,11.655811 C 497.71589,11.239171 499.11563,10.926671 500.41772,10.718311 C 501.73281,10.510001 502.96979,10.405841 504.12865,10.405811 C 507.12343,10.405841 509.49322,11.089431 511.23803,12.456591 C 512.9828,13.810781 513.85519,15.646721 513.85522,17.964401 C 513.85519,19.579001 513.39295,20.946191 512.4685,22.065961 C 511.544,23.172751 510.2289,23.940981 508.52318,24.370651 M 535.45678,36.772991 L 541.90209,36.772991 L 541.90209,14.526901 L 534.89037,15.933151 L 534.89037,12.339401 L 541.86303,10.933151 L 545.80834,10.933151 L 545.80834,36.772991 L 552.25365,36.772991 L 552.25365,40.093311 L 535.45678,40.093311 L 535.45678,36.772991 M 573.6599,36.772991 L 580.10522,36.772991 L 580.10522,14.526901 L 573.0935,15.933151 L 573.0935,12.339401 L 580.06615,10.933151 L 584.01146,10.933151 L 584.01146,36.772991 L 590.45678,36.772991 L 590.45678,40.093311 L 573.6599,40.093311 L 573.6599,36.772991"
         id="path3801"
         style="font-size:40px;font-style:normal;font-weight:normal;fill:#000000;fill-opacity:1;stroke:none;stroke-width:1px;stroke-linecap:butt;stroke-linejoin:miter;stroke-opacity:1;font-family:Bitstream Vera Sans" />
      <path
         d="M 528.99824,51.124501 L 556.85538,51.124501"
         id="path3803"
         style="fill:none;fill-rule:evenodd;stroke:#0000ff;stroke-width:5;stroke-linecap:butt;stroke-linejoin:miter;stroke-miterlimit:4;stroke-dasharray:none;stroke-opacity:1" />
      <path
         d="M 567.56966,51.124501 L 595.42681,51.124501"
         id="path3805"
         style="fill:none;fill-rule:evenodd;stroke:#00ffff;stroke-width:5;stroke-linecap:butt;stroke-linejoin:miter;stroke-miterlimit:4;stroke-dasharray:none;stroke-opacity:1" />
      <path
         d="M 491.92681,63.124506 L 596.21253,63.124506"
         id="path3807"
         style="fill:none;fill-rule:evenodd;stroke:#00ff00;stroke-width:5;stroke-linecap:butt;stroke-linejoin:miter;stroke-miterlimit:4;stroke-dasharray:none;stroke-opacity:1" />
    </g>
  </g>
</svg>
