<?xml version="1.0" encoding="utf-8"?>
<svg
	xmlns="http://www.w3.org/2000/svg" 
	version="1.1"
	width = "154"
	height = "207">
<title>15-14-13-12-8-4-3-1-1-2-1-1-3-1-1</title>
<g fill="black" stroke="black" stroke-width="2">
<circle cx="94" cy="33" r="5" />
<circle cx="76" cy="30" r="5" />
<circle cx="82" cy="50" r="5" />
<circle cx="78" cy="72" r="5" />
<circle cx="30" cy="98" r="5" />
<circle cx="51" cy="97" r="5" />
<circle cx="58" cy="80" r="5" />
<circle cx="72" cy="94" r="5" />
<circle cx="117" cy="138" r="5" />
<circle cx="124" cy="121" r="5" />
<circle cx="103" cy="123" r="5" />
<circle cx="83" cy="115" r="5" />
<circle cx="77" cy="136" r="5" />
<circle cx="71" cy="157" r="5" />
<circle cx="65" cy="177" r="5" />
<line x1="94" y1="33" x2="82" y2="50" />
<line x1="76" y1="30" x2="82" y2="50" />
<line x1="82" y1="50" x2="78" y2="72" />
<line x1="78" y1="72" x2="72" y2="94" />
<line x1="30" y1="98" x2="51" y2="97" />
<line x1="51" y1="97" x2="72" y2="94" />
<line x1="58" y1="80" x2="72" y2="94" />
<line x1="72" y1="94" x2="83" y2="115" />
<line x1="117" y1="138" x2="103" y2="123" />
<line x1="124" y1="121" x2="103" y2="123" />
<line x1="103" y1="123" x2="83" y2="115" />
<line x1="83" y1="115" x2="77" y2="136" />
<line x1="77" y1="136" x2="71" y2="157" />
<line x1="71" y1="157" x2="65" y2="177" />
</g>
</svg>