<?xml version="1.0" encoding="UTF-8" standalone="no"?>
<!-- Created with Inkscape (http://www.inkscape.org/) -->
<svg
   xmlns:dc="http://purl.org/dc/elements/1.1/"
   xmlns:cc="http://creativecommons.org/ns#"
   xmlns:rdf="http://www.w3.org/1999/02/22-rdf-syntax-ns#"
   xmlns:svg="http://www.w3.org/2000/svg"
   xmlns="http://www.w3.org/2000/svg"
   xmlns:sodipodi="http://sodipodi.sourceforge.net/DTD/sodipodi-0.dtd"
   xmlns:inkscape="http://www.inkscape.org/namespaces/inkscape"
   width="340"
   height="249"
   id="svg16182"
   sodipodi:version="0.32"
   inkscape:version="0.46"
   version="1.0"
   sodipodi:docname="look-a-tree.svg"
   inkscape:output_extension="org.inkscape.output.svg.inkscape">
  <defs
     id="defs16184">
    <marker
       inkscape:stockid="Arrow1Lend"
       orient="auto"
       refY="0"
       refX="0"
       id="Arrow1Lend"
       style="overflow:visible">
      <path
         id="path3274"
         d="M 0,0 L 5,-5 L -12.5,0 L 5,5 L 0,0 z"
         style="fill-rule:evenodd;stroke:#000000;stroke-width:1pt;marker-start:none"
         transform="matrix(-0.8,0,0,-0.8,-10,0)" />
    </marker>
    <inkscape:perspective
       sodipodi:type="inkscape:persp3d"
       inkscape:vp_x="0 : 526.18109 : 1"
       inkscape:vp_y="0 : 1000 : 0"
       inkscape:vp_z="744.09448 : 526.18109 : 1"
       inkscape:persp3d-origin="372.04724 : 350.78739 : 1"
       id="perspective16190" />
  </defs>
  <sodipodi:namedview
     id="base"
     pagecolor="#ffffff"
     bordercolor="#666666"
     borderopacity="1.0"
     gridtolerance="10000"
     guidetolerance="10"
     objecttolerance="10"
     inkscape:pageopacity="0.0"
     inkscape:pageshadow="2"
     inkscape:zoom="0.98994949"
     inkscape:cx="184.70508"
     inkscape:cy="222.77613"
     inkscape:document-units="px"
     inkscape:current-layer="g15056"
     showgrid="false"
     inkscape:window-width="641"
     inkscape:window-height="719"
     inkscape:window-x="4"
     inkscape:window-y="73" />
  <metadata
     id="metadata16187">
    <rdf:RDF>
      <cc:Work
         rdf:about="">
        <dc:format>image/svg+xml</dc:format>
        <dc:type
           rdf:resource="http://purl.org/dc/dcmitype/StillImage" />
      </cc:Work>
    </rdf:RDF>
  </metadata>
  <g
     inkscape:label="Layer 1"
     inkscape:groupmode="layer"
     id="layer1"
     transform="translate(-187.46275,-351.16033)">
    <g
       id="g12756"
       transform="matrix(0.4672489,0,0,0.4672489,461.81638,381.7911)"
       style="fill:#7fa100;fill-opacity:1"
       inkscape:export-filename="/m/fs/user7/a/93/nfalzon/trees/rooted-tree.png"
       inkscape:export-xdpi="90"
       inkscape:export-ydpi="90">
      <g
         id="g12833"
         transform="translate(-740.50469,23.542056)">
        <flowRoot
           xml:space="preserve"
           id="flowRoot14458"
           style="font-size:15px;font-style:normal;font-weight:normal;fill:#000000;fill-opacity:1;stroke:none;stroke-width:1px;stroke-linecap:butt;stroke-linejoin:miter;stroke-opacity:1;font-family:Bitstream Vera Sans"><flowRegion
             id="flowRegion14460"><rect
               id="rect14462"
               width="184"
               height="52"
               x="-226"
               y="732.67572" /></flowRegion><flowPara
             id="flowPara14464" /></flowRoot>        <flowRoot
           xml:space="preserve"
           id="flowRoot14466"
           style="font-size:15px;font-style:normal;font-weight:normal;fill:#000000;fill-opacity:1;stroke:none;stroke-width:1px;stroke-linecap:butt;stroke-linejoin:miter;stroke-opacity:1;font-family:Bitstream Vera Sans"><flowRegion
             id="flowRegion14468"><rect
               id="rect14470"
               width="542"
               height="647"
               x="-238"
               y="730.67572" /></flowRegion><flowPara
             id="flowPara14472" /></flowRoot>        <g
           id="g15056"
           transform="translate(-2.140187,-27.82243)"
           inkscape:export-filename="/m/fs/user7/a/93/nfalzon/trees/look-a-tree.png"
           inkscape:export-xdpi="90"
           inkscape:export-ydpi="90">
          <path
             sodipodi:nodetypes="cc"
             id="path12758"
             d="M 351.91686,95.026223 L 353.30378,-26.359231"
             style="fill:#7fa100;fill-opacity:1;fill-rule:evenodd;stroke:#000000;stroke-width:8.10984516;stroke-linecap:butt;stroke-linejoin:miter;stroke-miterlimit:4;stroke-dasharray:none;stroke-opacity:1" />
          <path
             sodipodi:nodetypes="cc"
             style="fill:#7fa100;fill-opacity:1;fill-rule:evenodd;stroke:#000000;stroke-width:8.10984516;stroke-linecap:butt;stroke-linejoin:miter;stroke-miterlimit:4;stroke-dasharray:none;stroke-opacity:1"
             d="M 375.23795,354.01275 L 299.29711,230.17245"
             id="path12760" />
          <path
             sodipodi:nodetypes="cc"
             id="path12762"
             d="M 300.36503,232.49773 L 226.87906,354.1423"
             style="fill:#7fa100;fill-opacity:1;fill-rule:evenodd;stroke:#000000;stroke-width:8.10984516;stroke-linecap:butt;stroke-linejoin:miter;stroke-miterlimit:4;stroke-dasharray:none;stroke-opacity:1" />
          <path
             sodipodi:nodetypes="cc"
             style="fill:#7fa100;fill-opacity:1;fill-rule:evenodd;stroke:#000000;stroke-width:8.10984516;stroke-linecap:butt;stroke-linejoin:miter;stroke-miterlimit:4;stroke-dasharray:none;stroke-opacity:1"
             d="M 408.37837,231.27031 L 354.5312,96.383207"
             id="path12764" />
          <path
             sodipodi:nodetypes="cc"
             id="path12766"
             d="M 297.91019,230.04289 L 354.5312,97.610631"
             style="fill:#7fa100;fill-opacity:1;fill-rule:evenodd;stroke:#000000;stroke-width:8.10984516;stroke-linecap:butt;stroke-linejoin:miter;stroke-miterlimit:4;stroke-dasharray:none;stroke-opacity:1" />
          <path
             d="M 258.86647,352.52033 C 258.86647,369.5421 245.0676,383.34097 228.04583,383.34097 C 211.02407,383.34097 197.2252,369.5421 197.2252,352.52033 C 197.2252,335.49857 211.02407,321.6997 228.04583,321.6997 C 245.0676,321.6997 258.86647,335.49857 258.86647,352.52033 L 258.86647,352.52033 z"
             id="path12768"
             style="fill:#7fa100;fill-opacity:1;stroke:#000000;stroke-width:8.11069393;stroke-miterlimit:4;stroke-dasharray:none;stroke-opacity:1" />
          <path
             d="M 406.70788,352.52033 C 406.70788,369.5421 392.90901,383.34097 375.88724,383.34097 C 358.86547,383.34097 345.0666,369.5421 345.0666,352.52033 C 345.0666,335.49857 358.86547,321.6997 375.88724,321.6997 C 392.90901,321.6997 406.70788,335.49857 406.70788,352.52033 L 406.70788,352.52033 z"
             id="path12770"
             style="fill:#7fa100;fill-opacity:1;stroke:#000000;stroke-width:8.11069393;stroke-miterlimit:4;stroke-dasharray:none;stroke-opacity:1" />
          <g
             transform="matrix(1.6221388,0,0,1.6221388,-259.09639,-251.55046)"
             id="g12772">
            <path
               style="fill:#7fa100;fill-opacity:1;stroke:#000000;stroke-width:5;stroke-miterlimit:4;stroke-dasharray:none;stroke-opacity:1"
               id="path12774"
               d="M 396.57384,138.799 C 396.57384,149.29241 388.06725,157.799 377.57384,157.799 C 367.08043,157.799 358.57384,149.29241 358.57384,138.799 C 358.57384,128.30559 367.08043,119.799 377.57384,119.799 C 388.06725,119.799 396.57384,128.30559 396.57384,138.799 L 396.57384,138.799 z" />
            <path
               d="M 388.25045,138.799 C 388.25045,144.69553 383.47037,149.47562 377.57383,149.47562 C 371.67729,149.47562 366.89721,144.69553 366.89721,138.799 C 366.89721,132.90246 371.67729,128.12238 377.57383,128.12238 C 383.47037,128.12238 388.25045,132.90246 388.25045,138.799 L 388.25045,138.799 z"
               id="path12776"
               style="fill:#7fa100;fill-opacity:1;stroke:#000000;stroke-width:4.99999952;stroke-miterlimit:4;stroke-dasharray:none;stroke-opacity:1" />
          </g>
          <path
             d="M 332.78716,228.40743 C 332.78716,245.4292 318.98829,259.22807 301.96652,259.22807 C 284.94475,259.22807 271.14588,245.4292 271.14588,228.40743 C 271.14588,211.38566 284.94475,197.58679 301.96652,197.58679 C 318.98829,197.58679 332.78716,211.38566 332.78716,228.40743 L 332.78716,228.40743 z"
             id="path12778"
             style="fill:#7fa100;fill-opacity:1;stroke:#000000;stroke-width:8.11069393;stroke-miterlimit:4;stroke-dasharray:none;stroke-opacity:1" />
          <path
             d="M 437.62351,228.40743 C 437.62351,245.4292 423.82464,259.22807 406.80287,259.22807 C 389.7811,259.22807 375.98223,245.4292 375.98223,228.40743 C 375.98223,211.38566 389.7811,197.58679 406.80287,197.58679 C 423.82464,197.58679 437.62351,211.38566 437.62351,228.40743 L 437.62351,228.40743 z"
             id="path12780"
             style="fill:#7fa100;fill-opacity:1;stroke:#000000;stroke-width:8.11069393;stroke-miterlimit:4;stroke-dasharray:none;stroke-opacity:1" />
          <path
             d="M 384.20142,95.845598 C 384.20142,112.86737 370.40255,126.66623 353.38078,126.66623 C 336.35901,126.66623 322.56014,112.86737 322.56014,95.845598 C 322.56014,78.82383 336.35901,65.02496 353.38078,65.02496 C 370.40255,65.02496 384.20142,78.82383 384.20142,95.845598 L 384.20142,95.845598 z"
             id="path12782"
             style="fill:#7fa100;fill-opacity:1;stroke:#000000;stroke-width:8.11069393;stroke-miterlimit:4;stroke-dasharray:none;stroke-opacity:1" />
          <path
             style="fill:none;fill-rule:evenodd;stroke:#e88900;stroke-width:4.28037405;stroke-linecap:butt;stroke-linejoin:miter;stroke-miterlimit:4;stroke-dasharray:none;stroke-opacity:1"
             d="M 306.34617,68.26627 C 343.75332,21.973045 378.05364,44.705691 410.30768,83.828501 C 433.48584,111.50926 447.84537,145.1454 462.80304,177.64028 C 489.39962,243.59187 496.72729,383.20995 431.89363,432.65358 C 376.99315,461.53807 308.08264,470.46427 245.90109,466.83925 C 214.64224,464.23781 181.2589,451.22503 165.23382,422.58304 C 125.86305,317.03054 249.12092,152.89223 306.34617,68.26627 z"
             id="path12784"
             sodipodi:nodetypes="ccccccc" />
          <path
             sodipodi:nodetypes="cs"
             transform="matrix(2.140187,0,0,2.140187,1083.5696,-1565.6627)"
             id="path12849"
             d="M -233,750.67572 C -233,750.67572 -272,748.67572 -302,776.67572"
             style="fill:none;fill-rule:evenodd;stroke:#000000;stroke-width:1px;stroke-linecap:butt;stroke-linejoin:miter;marker-start:none;marker-end:url(#Arrow1Lend);stroke-opacity:1" />
          <path
             transform="translate(847.51403,-697.70095)"
             style="font-size:42.80373764px;font-style:normal;font-weight:normal;fill:#000000;fill-opacity:1;stroke:none;stroke-width:1px;stroke-linecap:butt;stroke-linejoin:miter;stroke-opacity:1;font-family:Bitstream Vera Sans"
             d="M -244.79905,718.148 L -240.57719,718.148 L -240.57719,745.79904 L -225.3827,745.79904 L -225.3827,749.35209 L -244.79905,749.35209 L -244.79905,718.148 M -212.82164,728.63993 C -214.88381,728.63995 -216.51403,729.44809 -217.71231,731.06436 C -218.91059,732.66673 -219.50974,734.86822 -219.50973,737.66884 C -219.50974,740.46949 -218.91756,742.67795 -217.73321,744.29423 C -216.53493,745.89658 -214.89775,746.69776 -212.82164,746.69776 C -210.77343,746.69776 -209.15018,745.88962 -207.95188,744.27333 C -206.75362,742.65705 -206.15448,740.45555 -206.15446,737.66884 C -206.15448,734.89609 -206.75362,732.70156 -207.95188,731.08526 C -209.15018,729.45506 -210.77343,728.63995 -212.82164,728.63993 M -212.82164,725.37949 C -209.47762,725.37951 -206.85116,726.46633 -204.94225,728.63993 C -203.03338,730.81358 -202.07893,733.82321 -202.07891,737.66884 C -202.07893,741.50057 -203.03338,744.5102 -204.94225,746.69776 C -206.85116,748.87138 -209.47762,749.9582 -212.82164,749.9582 C -216.17963,749.9582 -218.81306,748.87138 -220.72194,746.69776 C -222.6169,744.5102 -223.56438,741.50057 -223.56438,737.66884 C -223.56438,733.82321 -222.6169,730.81358 -220.72194,728.63993 C -218.81306,726.46633 -216.17963,725.37951 -212.82164,725.37949 M -186.65452,728.63993 C -188.71669,728.63995 -190.3469,729.44809 -191.54518,731.06436 C -192.74347,732.66673 -193.34261,734.86822 -193.3426,737.66884 C -193.34261,740.46949 -192.75043,742.67795 -191.56608,744.29423 C -190.3678,745.89658 -188.73062,746.69776 -186.65452,746.69776 C -184.6063,746.69776 -182.98305,745.88962 -181.78475,744.27333 C -180.58649,742.65705 -179.98735,740.45555 -179.98733,737.66884 C -179.98735,734.89609 -180.58649,732.70156 -181.78475,731.08526 C -182.98305,729.45506 -184.6063,728.63995 -186.65452,728.63993 M -186.65452,725.37949 C -183.31049,725.37951 -180.68403,726.46633 -178.77512,728.63993 C -176.86625,730.81358 -175.9118,733.82321 -175.91178,737.66884 C -175.9118,741.50057 -176.86625,744.5102 -178.77512,746.69776 C -180.68403,748.87138 -183.31049,749.9582 -186.65452,749.9582 C -190.0125,749.9582 -192.64593,748.87138 -194.55481,746.69776 C -196.44977,744.5102 -197.39725,741.50057 -197.39725,737.66884 C -197.39725,733.82321 -196.44977,730.81358 -194.55481,728.63993 C -192.64593,726.46633 -190.0125,725.37951 -186.65452,725.37949 M -169.7044,716.83128 L -165.83785,716.83128 L -165.83785,736.03862 L -154.36361,725.9438 L -149.45205,725.9438 L -161.8668,736.89553 L -148.92954,749.35209 L -153.9456,749.35209 L -165.83785,737.91965 L -165.83785,749.35209 L -169.7044,749.35209 L -169.7044,716.83128 M -143.74627,744.04342 L -139.33632,744.04342 L -139.33632,747.63827 L -142.76396,754.32635 L -145.4601,754.32635 L -143.74627,747.63827 L -143.74627,744.04342 M -106.83641,737.58524 C -109.94359,737.58525 -112.09632,737.94056 -113.29459,738.65116 C -114.49288,739.36177 -115.09202,740.57399 -115.09201,742.2878 C -115.09202,743.65329 -114.64615,744.7401 -113.75439,745.54824 C -112.84873,746.34245 -111.62258,746.73956 -110.07595,746.73956 C -107.94414,746.73956 -106.23728,745.98715 -104.95538,744.48233 C -103.65959,742.96358 -103.01168,740.95019 -103.01166,738.44215 L -103.01166,737.58524 L -106.83641,737.58524 M -99.166012,735.99682 L -99.166012,749.35209 L -103.01166,749.35209 L -103.01166,745.79904 C -103.88949,747.22026 -104.98327,748.27224 -106.293,748.95498 C -107.60276,749.62379 -109.20512,749.9582 -111.10006,749.9582 C -113.49663,749.9582 -115.40552,749.28939 -116.82673,747.95177 C -118.23402,746.60022 -118.93766,744.79584 -118.93766,742.5386 C -118.93766,739.90518 -118.05985,737.91966 -116.30423,736.58203 C -114.53468,735.24443 -111.90125,734.57562 -108.40393,734.5756 L -103.01166,734.5756 L -103.01166,734.1994 C -103.01168,732.42986 -103.59689,731.06438 -104.76728,730.10295 C -105.92378,729.12762 -107.554,728.63995 -109.65794,728.63993 C -110.99557,728.63995 -112.29835,728.80019 -113.56629,729.12064 C -114.83425,729.44113 -116.05343,729.92183 -117.22384,730.56275 L -117.22384,727.00971 C -115.81656,726.46633 -114.45108,726.06225 -113.12739,725.79749 C -111.80371,725.51885 -110.51487,725.37951 -109.26084,725.37949 C -105.87501,725.37951 -103.34608,726.25732 -101.67404,728.01292 C -100.00204,729.76856 -99.166034,732.42986 -99.166012,735.99682 M -73.793093,719.29751 L -73.793093,725.9438 L -65.871894,725.9438 L -65.871894,728.93253 L -73.793093,728.93253 L -73.793093,741.63989 C -73.793101,743.54879 -73.535331,744.77494 -73.019783,745.31834 C -72.490319,745.86175 -71.424407,746.13345 -69.822043,746.13345 L -65.871894,746.13345 L -65.871894,749.35209 L -69.822043,749.35209 C -72.789889,749.35209 -74.838113,748.80172 -75.96672,747.70097 C -77.095339,746.58629 -77.659646,744.56593 -77.659642,741.63989 L -77.659642,728.93253 L -80.481177,728.93253 L -80.481177,725.9438 L -77.659642,725.9438 L -77.659642,719.29751 L -73.793093,719.29751 M -47.228868,729.53864 C -47.660824,729.28786 -48.134563,729.10672 -48.650086,728.99523 C -49.151708,728.86985 -49.709048,728.80715 -50.322107,728.80713 C -52.495746,728.80715 -54.167766,729.51776 -55.33817,730.93896 C -56.494659,732.34626 -57.072899,734.37358 -57.072892,737.02093 L -57.072892,749.35209 L -60.93944,749.35209 L -60.93944,725.9438 L -57.072892,725.9438 L -57.072892,729.58044 C -56.264757,728.15924 -55.212778,727.10727 -53.916952,726.4245 C -52.621148,725.72785 -51.046663,725.37951 -49.193493,725.37949 C -48.928772,725.37951 -48.636169,725.40041 -48.315682,725.44219 C -47.995228,725.47008 -47.639924,725.51885 -47.249768,725.58849 L -47.228868,729.53864 M -24.050472,736.68653 L -24.050472,738.56755 L -41.732094,738.56755 C -41.564899,741.21493 -40.770689,743.23529 -39.349464,744.62863 C -37.914323,746.00805 -35.921833,746.69776 -33.371989,746.69776 C -31.895053,746.69776 -30.46687,746.51662 -29.087435,746.15435 C -27.694105,745.79208 -26.314689,745.24868 -24.949183,744.52413 L -24.949183,748.16077 C -26.328622,748.74598 -27.742872,749.19185 -29.191937,749.49839 C -30.641039,749.80493 -32.111023,749.9582 -33.601892,749.9582 C -37.336083,749.9582 -40.296951,748.87138 -42.484504,746.69776 C -44.658134,744.52413 -45.744947,741.58417 -45.744945,737.87785 C -45.744947,734.04615 -44.713868,731.00864 -42.651706,728.76533 C -40.57562,726.50813 -37.781955,725.37951 -34.2707,725.37949 C -31.121745,725.37951 -28.634616,726.39666 -26.809307,728.43093 C -24.970107,730.4513 -24.050496,733.20317 -24.050472,736.68653 M -27.89612,735.55792 C -27.924008,733.45397 -28.516181,731.77499 -29.672643,730.52095 C -30.815208,729.26696 -32.333959,728.63995 -34.2289,728.63993 C -36.374672,728.63995 -38.095458,729.24606 -39.391265,730.45825 C -40.673155,731.67049 -41.41163,733.37734 -41.606693,735.57882 L -27.89612,735.55792 M 2.2838633,736.68653 L 2.2838633,738.56755 L -15.397759,738.56755 C -15.230563,741.21493 -14.436354,743.23529 -13.015129,744.62863 C -11.579988,746.00805 -9.587498,746.69776 -7.0376538,746.69776 C -5.5607181,746.69776 -4.1325349,746.51662 -2.7531,746.15435 C -1.3597696,745.79208 0.019646395,745.24868 1.385152,744.52413 L 1.385152,748.16077 C 0.0057129003,748.74598 -1.4085368,749.19185 -2.8576013,749.49839 C -4.3067036,749.80493 -5.7766873,749.9582 -7.2675567,749.9582 C -11.001748,749.9582 -13.962615,748.87138 -16.150168,746.69776 C -18.323799,744.52413 -19.410612,741.58417 -19.410609,737.87785 C -19.410612,734.04615 -18.379533,731.00864 -16.31737,728.76533 C -14.241285,726.50813 -11.44762,725.37951 -7.9363651,725.37949 C -4.7874092,725.37951 -2.3002804,726.39666 -0.47497136,728.43093 C 1.3642286,730.4513 2.2838392,733.20317 2.2838633,736.68653 M -1.561785,735.55792 C -1.5896722,733.45397 -2.1818457,731.77499 -3.3383073,730.52095 C -4.4808723,729.26696 -5.9996232,728.63995 -7.8945646,728.63993 C -10.040337,728.63995 -11.761123,729.24606 -13.056929,730.45825 C -14.33882,731.67049 -15.077295,733.37734 -15.272357,735.57882 L -1.561785,735.55792 M 11.020162,744.04342 L 15.262916,744.04342 L 15.262916,749.35209 L 11.020162,749.35209 L 11.020162,744.04342 M 11.020162,718.148 L 15.262916,718.148 L 15.262916,731.83767 L 14.84491,739.29906 L 11.459068,739.29906 L 11.020162,731.83767 L 11.020162,718.148"
             id="flowRoot14474" />
          <path
             sodipodi:nodetypes="cszs"
             id="path14482"
             d="M 263.36401,180.85153 C 334.49626,112.23697 371.62824,276.82585 412.02572,325.45961 C 479.35823,406.51997 402.39434,406.86639 272.8928,421.0415 C 143.39126,435.21661 155.26071,285.12859 263.36401,180.85153 z"
             style="fill:none;fill-rule:evenodd;stroke:#e77cd6;stroke-width:4.28037405;stroke-linecap:butt;stroke-linejoin:miter;stroke-miterlimit:4;stroke-dasharray:none;stroke-opacity:1" />
          <path
             style="fill:none;fill-rule:evenodd;stroke:#000000;stroke-width:2.14018703px;stroke-linecap:butt;stroke-linejoin:miter;marker-start:none;marker-end:url(#Arrow1Lend);stroke-opacity:1"
             d="M 573.135,261.36297 C 573.135,261.36297 489.66771,257.0826 425.4621,317.00784"
             id="path15046"
             sodipodi:nodetypes="cs" />
          <path
             transform="translate(835.743,-477.26169)"
             style="font-size:42.80373764px;font-style:normal;font-weight:normal;fill:#000000;fill-opacity:1;stroke:none;stroke-width:1px;stroke-linecap:butt;stroke-linejoin:miter;stroke-opacity:1;font-family:Bitstream Vera Sans"
             d="M -244.79905,718.148 L -240.57719,718.148 L -240.57719,745.79904 L -225.3827,745.79904 L -225.3827,749.35209 L -244.79905,749.35209 L -244.79905,718.148 M -212.82164,728.63993 C -214.88381,728.63995 -216.51403,729.44809 -217.71231,731.06436 C -218.91059,732.66673 -219.50974,734.86822 -219.50973,737.66884 C -219.50974,740.46949 -218.91756,742.67795 -217.73321,744.29423 C -216.53493,745.89658 -214.89775,746.69776 -212.82164,746.69776 C -210.77343,746.69776 -209.15018,745.88962 -207.95188,744.27333 C -206.75362,742.65705 -206.15448,740.45555 -206.15446,737.66884 C -206.15448,734.89609 -206.75362,732.70156 -207.95188,731.08526 C -209.15018,729.45506 -210.77343,728.63995 -212.82164,728.63993 M -212.82164,725.37949 C -209.47762,725.37951 -206.85116,726.46633 -204.94225,728.63993 C -203.03338,730.81358 -202.07893,733.82321 -202.07891,737.66884 C -202.07893,741.50057 -203.03338,744.5102 -204.94225,746.69776 C -206.85116,748.87138 -209.47762,749.9582 -212.82164,749.9582 C -216.17963,749.9582 -218.81306,748.87138 -220.72194,746.69776 C -222.6169,744.5102 -223.56438,741.50057 -223.56438,737.66884 C -223.56438,733.82321 -222.6169,730.81358 -220.72194,728.63993 C -218.81306,726.46633 -216.17963,725.37951 -212.82164,725.37949 M -186.65452,728.63993 C -188.71669,728.63995 -190.3469,729.44809 -191.54518,731.06436 C -192.74347,732.66673 -193.34261,734.86822 -193.3426,737.66884 C -193.34261,740.46949 -192.75043,742.67795 -191.56608,744.29423 C -190.3678,745.89658 -188.73062,746.69776 -186.65452,746.69776 C -184.6063,746.69776 -182.98305,745.88962 -181.78475,744.27333 C -180.58649,742.65705 -179.98735,740.45555 -179.98733,737.66884 C -179.98735,734.89609 -180.58649,732.70156 -181.78475,731.08526 C -182.98305,729.45506 -184.6063,728.63995 -186.65452,728.63993 M -186.65452,725.37949 C -183.31049,725.37951 -180.68403,726.46633 -178.77512,728.63993 C -176.86625,730.81358 -175.9118,733.82321 -175.91178,737.66884 C -175.9118,741.50057 -176.86625,744.5102 -178.77512,746.69776 C -180.68403,748.87138 -183.31049,749.9582 -186.65452,749.9582 C -190.0125,749.9582 -192.64593,748.87138 -194.55481,746.69776 C -196.44977,744.5102 -197.39725,741.50057 -197.39725,737.66884 C -197.39725,733.82321 -196.44977,730.81358 -194.55481,728.63993 C -192.64593,726.46633 -190.0125,725.37951 -186.65452,725.37949 M -169.7044,716.83128 L -165.83785,716.83128 L -165.83785,736.03862 L -154.36361,725.9438 L -149.45205,725.9438 L -161.8668,736.89553 L -148.92954,749.35209 L -153.9456,749.35209 L -165.83785,737.91965 L -165.83785,749.35209 L -169.7044,749.35209 L -169.7044,716.83128 M -143.74627,744.04342 L -139.33632,744.04342 L -139.33632,747.63827 L -142.76396,754.32635 L -145.4601,754.32635 L -143.74627,747.63827 L -143.74627,744.04342 M -106.83641,737.58524 C -109.94359,737.58525 -112.09632,737.94056 -113.29459,738.65116 C -114.49288,739.36177 -115.09202,740.57399 -115.09201,742.2878 C -115.09202,743.65329 -114.64615,744.7401 -113.75439,745.54824 C -112.84873,746.34245 -111.62258,746.73956 -110.07595,746.73956 C -107.94414,746.73956 -106.23728,745.98715 -104.95538,744.48233 C -103.65959,742.96358 -103.01168,740.95019 -103.01166,738.44215 L -103.01166,737.58524 L -106.83641,737.58524 M -99.166012,735.99682 L -99.166012,749.35209 L -103.01166,749.35209 L -103.01166,745.79904 C -103.88949,747.22026 -104.98327,748.27224 -106.293,748.95498 C -107.60276,749.62379 -109.20512,749.9582 -111.10006,749.9582 C -113.49663,749.9582 -115.40552,749.28939 -116.82673,747.95177 C -118.23402,746.60022 -118.93766,744.79584 -118.93766,742.5386 C -118.93766,739.90518 -118.05985,737.91966 -116.30423,736.58203 C -114.53468,735.24443 -111.90125,734.57562 -108.40393,734.5756 L -103.01166,734.5756 L -103.01166,734.1994 C -103.01168,732.42986 -103.59689,731.06438 -104.76728,730.10295 C -105.92378,729.12762 -107.554,728.63995 -109.65794,728.63993 C -110.99557,728.63995 -112.29835,728.80019 -113.56629,729.12064 C -114.83425,729.44113 -116.05343,729.92183 -117.22384,730.56275 L -117.22384,727.00971 C -115.81656,726.46633 -114.45108,726.06225 -113.12739,725.79749 C -111.80371,725.51885 -110.51487,725.37951 -109.26084,725.37949 C -105.87501,725.37951 -103.34608,726.25732 -101.67404,728.01292 C -100.00204,729.76856 -99.166034,732.42986 -99.166012,735.99682 M -71.765765,735.22351 L -71.765765,749.35209 L -75.611413,749.35209 L -75.611413,735.34891 C -75.611433,733.1335 -76.043371,731.47542 -76.907229,730.37465 C -77.771124,729.27392 -79.066939,728.72355 -80.794678,728.72353 C -82.870783,728.72355 -84.507969,729.38539 -85.70624,730.70906 C -86.90453,732.03276 -87.50367,733.83714 -87.503663,736.12222 L -87.503663,749.35209 L -91.370211,749.35209 L -91.370211,725.9438 L -87.503663,725.9438 L -87.503663,729.58044 C -86.58406,728.17318 -85.504214,727.1212 -84.264122,726.4245 C -83.010118,725.72785 -81.568002,725.37951 -79.937767,725.37949 C -77.248618,725.37951 -75.214328,726.21552 -73.834891,727.88752 C -72.455496,729.54563 -71.765788,731.99096 -71.765765,735.22351 M -54.982861,728.63993 C -57.045032,728.63995 -58.675251,729.44809 -59.873523,731.06436 C -61.071812,732.66673 -61.670952,734.86822 -61.670945,737.66884 C -61.670952,740.46949 -61.078778,742.67795 -59.894423,744.29423 C -58.696151,745.89658 -57.058965,746.69776 -54.982861,746.69776 C -52.934651,746.69776 -51.311399,745.88962 -50.1131,744.27333 C -48.914838,742.65705 -48.315697,740.45555 -48.315678,737.66884 C -48.315697,734.89609 -48.914838,732.70156 -50.1131,731.08526 C -51.311399,729.45506 -52.934651,728.63995 -54.982861,728.63993 M -54.982861,725.37949 C -51.638836,725.37951 -49.012372,726.46633 -47.103462,728.63993 C -45.194595,730.81358 -44.24015,733.82321 -44.240127,737.66884 C -44.24015,741.50057 -45.194595,744.5102 -47.103462,746.69776 C -49.012372,748.87138 -51.638836,749.9582 -54.982861,749.9582 C -58.340847,749.9582 -60.974277,748.87138 -62.883161,746.69776 C -64.778121,744.5102 -65.725599,741.50057 -65.725596,737.66884 C -65.725599,733.82321 -64.778121,730.81358 -62.883161,728.63993 C -60.974277,726.46633 -58.340847,725.37951 -54.982861,725.37949 M -34.082598,719.29751 L -34.082598,725.9438 L -26.161399,725.9438 L -26.161399,728.93253 L -34.082598,728.93253 L -34.082598,741.63989 C -34.082606,743.54879 -33.824836,744.77494 -33.309288,745.31834 C -32.779824,745.86175 -31.713912,746.13345 -30.111548,746.13345 L -26.161399,746.13345 L -26.161399,749.35209 L -30.111548,749.35209 C -33.079394,749.35209 -35.127618,748.80172 -36.256225,747.70097 C -37.384844,746.58629 -37.949151,744.56593 -37.949147,741.63989 L -37.949147,728.93253 L -40.770682,728.93253 L -40.770682,725.9438 L -37.949147,725.9438 L -37.949147,719.29751 L -34.082598,719.29751 M -1.6244837,735.22351 L -1.6244837,749.35209 L -5.470132,749.35209 L -5.470132,735.34891 C -5.4701517,733.1335 -5.90209,731.47542 -6.7659483,730.37465 C -7.6298433,729.27392 -8.9256583,728.72355 -10.653397,728.72353 C -12.729502,728.72355 -14.366688,729.38539 -15.564959,730.70906 C -16.763249,732.03276 -17.362389,733.83714 -17.362381,736.12222 L -17.362381,749.35209 L -21.22893,749.35209 L -21.22893,716.83128 L -17.362381,716.83128 L -17.362381,729.58044 C -16.442779,728.17318 -15.362933,727.1212 -14.122841,726.4245 C -12.868837,725.72785 -11.426721,725.37951 -9.7964864,725.37949 C -7.1073373,725.37951 -5.0730471,726.21552 -3.6936097,727.88752 C -2.3142152,729.54563 -1.6245072,731.99096 -1.6244837,735.22351 M 26.110157,736.68653 L 26.110157,738.56755 L 8.4285351,738.56755 C 8.5957307,741.21493 9.3899399,743.23529 10.811165,744.62863 C 12.246306,746.00805 14.238796,746.69776 16.78864,746.69776 C 18.265576,746.69776 19.693759,746.51662 21.073194,746.15435 C 22.466524,745.79208 23.84594,745.24868 25.211446,744.52413 L 25.211446,748.16077 C 23.832007,748.74598 22.417757,749.19185 20.968693,749.49839 C 19.51959,749.80493 18.049607,749.9582 16.558737,749.9582 C 12.824546,749.9582 9.8636787,748.87138 7.6761257,746.69776 C 5.5024949,744.52413 4.4156824,741.58417 4.4156847,737.87785 C 4.4156824,734.04615 5.446761,731.00864 7.5089236,728.76533 C 9.5850088,726.50813 12.378674,725.37951 15.889929,725.37949 C 19.038885,725.37951 21.526014,726.39666 23.351323,728.43093 C 25.190523,730.4513 26.110133,733.20317 26.110157,736.68653 M 22.264509,735.55792 C 22.236622,733.45397 21.644448,731.77499 20.487987,730.52095 C 19.345422,729.26696 17.826671,728.63995 15.931729,728.63993 C 13.785957,728.63995 12.065171,729.24606 10.769365,730.45825 C 9.4874743,731.67049 8.7489991,733.37734 8.5539367,735.57882 L 22.264509,735.55792 M 45.986296,729.53864 C 45.55434,729.28786 45.080601,729.10672 44.565078,728.99523 C 44.063456,728.86985 43.506117,728.80715 42.893057,728.80713 C 40.719418,728.80715 39.047398,729.51776 37.876994,730.93896 C 36.720505,732.34626 36.142265,734.37358 36.142273,737.02093 L 36.142273,749.35209 L 32.275724,749.35209 L 32.275724,725.9438 L 36.142273,725.9438 L 36.142273,729.58044 C 36.950407,728.15924 38.002386,727.10727 39.298212,726.4245 C 40.594016,725.72785 42.168501,725.37951 44.021672,725.37949 C 44.286392,725.37951 44.578996,725.40041 44.899483,725.44219 C 45.219936,725.47008 45.575241,725.51885 45.965396,725.58849 L 45.986296,729.53864 M -241.1624,772.80221 L -241.1624,779.4485 L -233.2412,779.4485 L -233.2412,782.43723 L -241.1624,782.43723 L -241.1624,795.14459 C -241.16241,797.05349 -240.90464,798.27964 -240.38909,798.82304 C -239.85963,799.36645 -238.79372,799.63815 -237.19135,799.63815 L -233.2412,799.63815 L -233.2412,802.85679 L -237.19135,802.85679 C -240.1592,802.85679 -242.20742,802.30642 -243.33603,801.20567 C -244.46465,800.09099 -245.02895,798.07063 -245.02895,795.14459 L -245.02895,782.43723 L -247.85049,782.43723 L -247.85049,779.4485 L -245.02895,779.4485 L -245.02895,772.80221 L -241.1624,772.80221 M -214.59817,783.04334 C -215.03012,782.79256 -215.50386,782.61142 -216.01939,782.49993 C -216.52101,782.37455 -217.07835,782.31185 -217.69141,782.31183 C -219.86505,782.31185 -221.53707,783.02246 -222.70747,784.44366 C -223.86396,785.85096 -224.4422,787.87828 -224.44219,790.52563 L -224.44219,802.85679 L -228.30874,802.85679 L -228.30874,779.4485 L -224.44219,779.4485 L -224.44219,783.08514 C -223.63406,781.66394 -222.58208,780.61197 -221.28625,779.9292 C -219.99045,779.23255 -218.41596,778.88421 -216.56279,778.88419 C -216.29807,778.88421 -216.00547,778.90511 -215.68498,778.94689 C -215.36453,778.97478 -215.00922,779.02355 -214.61907,779.09319 L -214.59817,783.04334 M -191.41978,790.19123 L -191.41978,792.07225 L -209.1014,792.07225 C -208.93421,794.71963 -208.14,796.73999 -206.71877,798.13333 C -205.28363,799.51275 -203.29114,800.20246 -200.7413,800.20246 C -199.26436,800.20246 -197.83618,800.02132 -196.45674,799.65905 C -195.06341,799.29678 -193.684,798.75338 -192.31849,798.02883 L -192.31849,801.66547 C -193.69793,802.25068 -195.11218,802.69655 -196.56125,803.00309 C -198.01035,803.30963 -199.48033,803.4629 -200.9712,803.4629 C -204.70539,803.4629 -207.66626,802.37608 -209.85381,800.20246 C -212.02744,798.02883 -213.11426,795.08887 -213.11425,791.38255 C -213.11426,787.55085 -212.08318,784.51334 -210.02101,782.27003 C -207.94493,780.01283 -205.15126,778.88421 -201.64001,778.88419 C -198.49105,778.88421 -196.00392,779.90136 -194.17862,781.93563 C -192.33942,783.956 -191.4198,786.70787 -191.41978,790.19123 M -195.26543,789.06262 C -195.29332,786.95867 -195.88549,785.27969 -197.04195,784.02565 C -198.18452,782.77166 -199.70327,782.14465 -201.59821,782.14463 C -203.74398,782.14465 -205.46477,782.75076 -206.76057,783.96295 C -208.04246,785.17518 -208.78094,786.88204 -208.976,789.08352 L -195.26543,789.06262 M -165.08545,790.19123 L -165.08545,792.07225 L -182.76707,792.07225 C -182.59987,794.71963 -181.80566,796.73999 -180.38444,798.13333 C -178.9493,799.51275 -176.95681,800.20246 -174.40696,800.20246 C -172.93003,800.20246 -171.50184,800.02132 -170.12241,799.65905 C -168.72908,799.29678 -167.34966,798.75338 -165.98416,798.02883 L -165.98416,801.66547 C -167.3636,802.25068 -168.77785,802.69655 -170.22691,803.00309 C -171.67601,803.30963 -173.146,803.4629 -174.63687,803.4629 C -178.37106,803.4629 -181.33192,802.37608 -183.51948,800.20246 C -185.69311,798.02883 -186.77992,795.08887 -186.77992,791.38255 C -186.77992,787.55085 -185.74884,784.51334 -183.68668,782.27003 C -181.61059,780.01283 -178.81693,778.88421 -175.30567,778.88419 C -172.15672,778.88421 -169.66959,779.90136 -167.84428,781.93563 C -166.00508,783.956 -165.08547,786.70787 -165.08545,790.19123 M -168.93109,789.06262 C -168.95898,786.95867 -169.55115,785.27969 -170.70762,784.02565 C -171.85018,782.77166 -173.36893,782.14465 -175.26387,782.14463 C -177.40965,782.14465 -179.13043,782.75076 -180.42624,783.96295 C -181.70813,785.17518 -182.4466,786.88204 -182.64167,789.08352 L -168.93109,789.06262 M -156.34914,797.54812 L -152.10639,797.54812 L -152.10639,802.85679 L -156.34914,802.85679 L -156.34914,797.54812 M -156.34914,771.6527 L -152.10639,771.6527 L -152.10639,785.34237 L -152.52439,792.80376 L -155.91023,792.80376 L -156.34914,785.34237 L -156.34914,771.6527"
             id="flowRoot15048" />
        </g>
      </g>
    </g>
  </g>
</svg>
