<?xml version="1.0" encoding="UTF-8" standalone="no"?>
<!-- Created with Inkscape (http://www.inkscape.org/) -->
<svg
   xmlns:dc="http://purl.org/dc/elements/1.1/"
   xmlns:cc="http://creativecommons.org/ns#"
   xmlns:rdf="http://www.w3.org/1999/02/22-rdf-syntax-ns#"
   xmlns:svg="http://www.w3.org/2000/svg"
   xmlns="http://www.w3.org/2000/svg"
   xmlns:sodipodi="http://sodipodi.sourceforge.net/DTD/sodipodi-0.dtd"
   xmlns:inkscape="http://www.inkscape.org/namespaces/inkscape"
   width="128"
   height="107"
   id="svg15169"
   sodipodi:version="0.32"
   inkscape:version="0.46"
   version="1.0"
   sodipodi:docname="digraph.svg"
   inkscape:output_extension="org.inkscape.output.svg.inkscape">
  <defs
     id="defs15171">
    <inkscape:perspective
       sodipodi:type="inkscape:persp3d"
       inkscape:vp_x="0 : 526.18109 : 1"
       inkscape:vp_y="0 : 1000 : 0"
       inkscape:vp_z="744.09448 : 526.18109 : 1"
       inkscape:persp3d-origin="372.04724 : 350.78739 : 1"
       id="perspective15177" />
  </defs>
  <sodipodi:namedview
     id="base"
     pagecolor="#ffffff"
     bordercolor="#666666"
     borderopacity="1.0"
     gridtolerance="10000"
     guidetolerance="10"
     objecttolerance="10"
     inkscape:pageopacity="0.0"
     inkscape:pageshadow="2"
     inkscape:zoom="0.35"
     inkscape:cx="375"
     inkscape:cy="520"
     inkscape:document-units="px"
     inkscape:current-layer="layer1"
     showgrid="false"
     inkscape:window-width="641"
     inkscape:window-height="719"
     inkscape:window-x="4"
     inkscape:window-y="73" />
  <metadata
     id="metadata15174">
    <rdf:RDF>
      <cc:Work
         rdf:about="">
        <dc:format>image/svg+xml</dc:format>
        <dc:type
           rdf:resource="http://purl.org/dc/dcmitype/StillImage" />
      </cc:Work>
    </rdf:RDF>
  </metadata>
  <g
     inkscape:label="Layer 1"
     inkscape:groupmode="layer"
     id="layer1"
     transform="translate(-678.84405,-573.14789)">
    <g
       inkscape:export-ydpi="90"
       inkscape:export-xdpi="90"
       inkscape:export-filename="/m/fs/user7/a/93/nfalzon/trees/multigraph.png"
       id="g11137"
       transform="matrix(0.4672489,0,0,0.4672489,623.9423,517.60967)">
      <path
         sodipodi:nodetypes="cc"
         d="M 166.75621,328.37951 C 206.50222,345.24571 279.81058,349.37616 318.12987,330.57428"
         id="path11159"
         style="fill:none;fill-rule:evenodd;stroke:#000000;stroke-width:5;stroke-linecap:butt;stroke-linejoin:miter;stroke-miterlimit:4;stroke-dasharray:none;stroke-opacity:1" />
      <path
         d="M 271,139.36218 C 269.28194,203.0435 283.4715,265.5696 318,326.36218"
         id="path11167"
         style="fill:none;fill-rule:evenodd;stroke:#000000;stroke-width:5;stroke-linecap:butt;stroke-linejoin:miter;stroke-miterlimit:4;stroke-dasharray:none;stroke-opacity:1"
         sodipodi:nodetypes="cc" />
      <path
         style="fill:none;fill-rule:evenodd;stroke:#000000;stroke-width:5;stroke-linecap:butt;stroke-linejoin:miter;stroke-miterlimit:4;stroke-dasharray:none;stroke-opacity:1"
         id="path11169"
         d="M 168.36135,327.30942 C 208.85581,303.39979 280.48883,306.6891 318.12987,328.43409"
         sodipodi:nodetypes="cc" />
      <path
         sodipodi:nodetypes="cc"
         style="fill:none;fill-rule:evenodd;stroke:#000000;stroke-width:5;stroke-linecap:butt;stroke-linejoin:miter;stroke-miterlimit:4;stroke-dasharray:none;stroke-opacity:1"
         id="path11139"
         d="M 135.19715,171.66147 L 149.32295,248.05576" />
      <path
         style="fill:none;fill-rule:evenodd;stroke:#000000;stroke-width:5;stroke-linecap:butt;stroke-linejoin:miter;stroke-miterlimit:4;stroke-dasharray:none;stroke-opacity:1"
         id="path11141"
         d="M 271,139.36218 C 300.62832,210.5802 319.68372,275.07 318,326.36218"
         sodipodi:nodetypes="cc" />
      <path
         style="fill:none;fill-rule:evenodd;stroke:#000000;stroke-width:5;stroke-linecap:butt;stroke-linejoin:miter;stroke-miterlimit:4;stroke-dasharray:none;stroke-opacity:1"
         id="path11143"
         d="M 371,230.36218 L 164,323.36218" />
      <path
         style="fill:none;fill-rule:evenodd;stroke:#000000;stroke-width:5;stroke-linecap:butt;stroke-linejoin:miter;stroke-miterlimit:4;stroke-dasharray:none;stroke-opacity:1"
         id="path11145"
         d="M 378,231.36218 L 140,172.36218" />
      <path
         style="fill:#c83737;fill-opacity:1;stroke:#000000;stroke-width:5;stroke-miterlimit:4;stroke-dasharray:none;stroke-opacity:1"
         id="path11147"
         transform="translate(-1,0)"
         d="M 159,172.36218 C 159,182.85559 150.49341,191.36218 140,191.36218 C 129.50659,191.36218 121,182.85559 121,172.36218 C 121,161.86877 129.50659,153.36218 140,153.36218 C 150.49341,153.36218 159,161.86877 159,172.36218 L 159,172.36218 z" />
      <path
         style="fill:#c83737;fill-opacity:1;stroke:#000000;stroke-width:5;stroke-miterlimit:4;stroke-dasharray:none;stroke-opacity:1"
         id="path11149"
         transform="translate(131,-32)"
         d="M 159,172.36218 C 159,182.85559 150.49341,191.36218 140,191.36218 C 129.50659,191.36218 121,182.85559 121,172.36218 C 121,161.86877 129.50659,153.36218 140,153.36218 C 150.49341,153.36218 159,161.86877 159,172.36218 L 159,172.36218 z" />
      <path
         style="fill:#c83737;fill-opacity:1;stroke:#000000;stroke-width:5;stroke-miterlimit:4;stroke-dasharray:none;stroke-opacity:1"
         id="path11151"
         d="M 174.22795,267.77788 C 174.22795,278.27129 165.72136,286.77788 155.22795,286.77788 C 144.73454,286.77788 136.22795,278.27129 136.22795,267.77788 C 136.22795,257.28447 144.73454,248.77788 155.22795,248.77788 C 165.72136,248.77788 174.22795,257.28447 174.22795,267.77788 L 174.22795,267.77788 z" />
      <path
         transform="translate(230,58)"
         style="fill:#c83737;fill-opacity:1;stroke:#000000;stroke-width:5;stroke-miterlimit:4;stroke-dasharray:none;stroke-opacity:1"
         id="path11153"
         d="M 159,172.36218 C 159,182.85559 150.49341,191.36218 140,191.36218 C 129.50659,191.36218 121,182.85559 121,172.36218 C 121,161.86877 129.50659,153.36218 140,153.36218 C 150.49341,153.36218 159,161.86877 159,172.36218 L 159,172.36218 z" />
      <path
         style="fill:#c83737;fill-opacity:1;stroke:#000000;stroke-width:5;stroke-miterlimit:4;stroke-dasharray:none;stroke-opacity:1"
         id="path11155"
         transform="translate(25,153)"
         d="M 159,172.36218 C 159,182.85559 150.49341,191.36218 140,191.36218 C 129.50659,191.36218 121,182.85559 121,172.36218 C 121,161.86877 129.50659,153.36218 140,153.36218 C 150.49341,153.36218 159,161.86877 159,172.36218 L 159,172.36218 z" />
      <path
         style="fill:#c83737;fill-opacity:1;stroke:#000000;stroke-width:5;stroke-miterlimit:4;stroke-dasharray:none;stroke-opacity:1"
         id="path11157"
         transform="translate(178,154)"
         d="M 159,172.36218 C 159,182.85559 150.49341,191.36218 140,191.36218 C 129.50659,191.36218 121,182.85559 121,172.36218 C 121,161.86877 129.50659,153.36218 140,153.36218 C 150.49341,153.36218 159,161.86877 159,172.36218 L 159,172.36218 z" />
      <path
         style="fill:none;fill-rule:evenodd;stroke:#000000;stroke-width:5;stroke-linecap:butt;stroke-linejoin:miter;stroke-miterlimit:4;stroke-dasharray:none;stroke-opacity:1"
         id="path11161"
         d="M 177.94067,312.50486 L 258.63424,156.2623"
         sodipodi:nodetypes="cc" />
      <path
         d="M 157.61998,287.9799 L 162.6365,307.6164"
         id="path11163"
         style="fill:none;fill-rule:evenodd;stroke:#000000;stroke-width:5;stroke-linecap:butt;stroke-linejoin:miter;stroke-miterlimit:4;stroke-dasharray:none;stroke-opacity:1"
         sodipodi:nodetypes="cc" />
      <path
         d="M 287.25196,152.04149 L 353.93126,216.52365"
         id="path11165"
         style="fill:none;fill-rule:evenodd;stroke:#000000;stroke-width:5;stroke-linecap:butt;stroke-linejoin:miter;stroke-miterlimit:4;stroke-dasharray:none;stroke-opacity:1"
         sodipodi:nodetypes="cc" />
    </g>
  </g>
</svg>
