<?xml version="1.0" encoding="UTF-8" standalone="no"?>
<!-- Created with Inkscape (http://www.inkscape.org/) -->
<svg
   xmlns:dc="http://purl.org/dc/elements/1.1/"
   xmlns:cc="http://creativecommons.org/ns#"
   xmlns:rdf="http://www.w3.org/1999/02/22-rdf-syntax-ns#"
   xmlns:svg="http://www.w3.org/2000/svg"
   xmlns="http://www.w3.org/2000/svg"
   xmlns:sodipodi="http://sodipodi.sourceforge.net/DTD/sodipodi-0.dtd"
   xmlns:inkscape="http://www.inkscape.org/namespaces/inkscape"
   width="312"
   height="253"
   id="svg16123"
   sodipodi:version="0.32"
   inkscape:version="0.46"
   version="1.0"
   sodipodi:docname="rec-call.svg"
   inkscape:output_extension="org.inkscape.output.svg.inkscape">
  <defs
     id="defs16125">
    <marker
       inkscape:stockid="Arrow1Mend"
       orient="auto"
       refY="0"
       refX="0"
       id="Arrow1Mend"
       style="overflow:visible">
      <path
         id="path3247"
         d="M 0,0 L 5,-5 L -12.5,0 L 5,5 L 0,0 z"
         style="fill-rule:evenodd;stroke:#000000;stroke-width:1pt;marker-start:none"
         transform="matrix(-0.4,0,0,-0.4,-4,0)" />
    </marker>
    <inkscape:perspective
       sodipodi:type="inkscape:persp3d"
       inkscape:vp_x="0 : 526.18109 : 1"
       inkscape:vp_y="0 : 1000 : 0"
       inkscape:vp_z="744.09448 : 526.18109 : 1"
       inkscape:persp3d-origin="372.04724 : 350.78739 : 1"
       id="perspective16131" />
  </defs>
  <sodipodi:namedview
     id="base"
     pagecolor="#ffffff"
     bordercolor="#666666"
     borderopacity="1.0"
     gridtolerance="10000"
     guidetolerance="10"
     objecttolerance="10"
     inkscape:pageopacity="0.0"
     inkscape:pageshadow="2"
     inkscape:zoom="1"
     inkscape:cx="99.21003"
     inkscape:cy="134.79265"
     inkscape:document-units="px"
     inkscape:current-layer="layer1"
     showgrid="false"
     inkscape:window-width="1194"
     inkscape:window-height="719"
     inkscape:window-x="4"
     inkscape:window-y="73" />
  <metadata
     id="metadata16128">
    <rdf:RDF>
      <cc:Work
         rdf:about="">
        <dc:format>image/svg+xml</dc:format>
        <dc:type
           rdf:resource="http://purl.org/dc/dcmitype/StillImage" />
      </cc:Work>
    </rdf:RDF>
  </metadata>
  <g
     inkscape:label="Layer 1"
     inkscape:groupmode="layer"
     id="layer1"
     transform="translate(-361.20571,-478.85782)">
    <g
       id="g4065"
       transform="matrix(1.6980855,0,0,1.6980855,-288.57566,-423.7849)">
      <g
         inkscape:export-ydpi="90"
         inkscape:export-xdpi="90"
         inkscape:export-filename="/m/fs/user7/a/93/nfalzon/trees/rooted-tree.png"
         style="opacity:0.39669423;fill:#7fa100;fill-opacity:1"
         transform="matrix(0.4672489,0,0,0.4672489,267.64945,536.80351)"
         id="g12698">
        <path
           style="fill:#7fa100;fill-opacity:1;fill-rule:evenodd;stroke:#000000;stroke-width:4.99947691;stroke-linecap:butt;stroke-linejoin:miter;stroke-miterlimit:4;stroke-dasharray:none;stroke-opacity:1"
           d="M 343.99674,127.39373 L 344.85173,52.563232"
           id="path12700"
           sodipodi:nodetypes="cc" />
        <path
           id="path12702"
           d="M 358.37349,287.05117 L 311.55824,210.70733"
           style="fill:#7fa100;fill-opacity:1;fill-rule:evenodd;stroke:#000000;stroke-width:4.99947691;stroke-linecap:butt;stroke-linejoin:miter;stroke-miterlimit:4;stroke-dasharray:none;stroke-opacity:1"
           sodipodi:nodetypes="cc" />
        <path
           style="fill:#7fa100;fill-opacity:1;fill-rule:evenodd;stroke:#000000;stroke-width:4.99947691;stroke-linecap:butt;stroke-linejoin:miter;stroke-miterlimit:4;stroke-dasharray:none;stroke-opacity:1"
           d="M 312.21658,212.1408 L 266.91468,287.13103"
           id="path12704"
           sodipodi:nodetypes="cc" />
        <path
           id="path12706"
           d="M 378.80357,211.38413 L 345.6084,128.23027"
           style="fill:#7fa100;fill-opacity:1;fill-rule:evenodd;stroke:#000000;stroke-width:4.99947691;stroke-linecap:butt;stroke-linejoin:miter;stroke-miterlimit:4;stroke-dasharray:none;stroke-opacity:1"
           sodipodi:nodetypes="cc" />
        <path
           style="fill:#7fa100;fill-opacity:1;fill-rule:evenodd;stroke:#000000;stroke-width:4.99947691;stroke-linecap:butt;stroke-linejoin:miter;stroke-miterlimit:4;stroke-dasharray:none;stroke-opacity:1"
           d="M 310.70324,210.62746 L 345.6084,128.98694"
           id="path12708"
           sodipodi:nodetypes="cc" />
        <path
           style="fill:#7fa100;fill-opacity:1;stroke:#000000;stroke-width:5;stroke-miterlimit:4;stroke-dasharray:none;stroke-opacity:1"
           id="path12710"
           d="M 286.63396,286.13114 C 286.63396,296.62455 278.12737,305.13114 267.63396,305.13114 C 257.14055,305.13114 248.63396,296.62455 248.63396,286.13114 C 248.63396,275.63773 257.14055,267.13114 267.63396,267.13114 C 278.12737,267.13114 286.63396,275.63773 286.63396,286.13114 L 286.63396,286.13114 z" />
        <path
           style="fill:#7fa100;fill-opacity:1;stroke:#000000;stroke-width:5;stroke-miterlimit:4;stroke-dasharray:none;stroke-opacity:1"
           id="path12712"
           d="M 377.77376,286.13114 C 377.77376,296.62455 369.26717,305.13114 358.77376,305.13114 C 348.28035,305.13114 339.77376,296.62455 339.77376,286.13114 C 339.77376,275.63773 348.28035,267.13114 358.77376,267.13114 C 369.26717,267.13114 377.77376,275.63773 377.77376,286.13114 L 377.77376,286.13114 z" />
        <g
           id="g12714"
           transform="translate(-32.674638,-86.260418)">
          <path
             d="M 396.57384,138.799 C 396.57384,149.29241 388.06725,157.799 377.57384,157.799 C 367.08043,157.799 358.57384,149.29241 358.57384,138.799 C 358.57384,128.30559 367.08043,119.799 377.57384,119.799 C 388.06725,119.799 396.57384,128.30559 396.57384,138.799 L 396.57384,138.799 z"
             id="path12716"
             style="fill:#7fa100;fill-opacity:1;stroke:#000000;stroke-width:5;stroke-miterlimit:4;stroke-dasharray:none;stroke-opacity:1" />
          <path
             style="fill:#7fa100;fill-opacity:1;stroke:#000000;stroke-width:4.99999952;stroke-miterlimit:4;stroke-dasharray:none;stroke-opacity:1"
             id="path12718"
             d="M 388.25045,138.799 C 388.25045,144.69553 383.47037,149.47562 377.57383,149.47562 C 371.67729,149.47562 366.89721,144.69553 366.89721,138.799 C 366.89721,132.90246 371.67729,128.12238 377.57383,128.12238 C 383.47037,128.12238 388.25045,132.90246 388.25045,138.799 L 388.25045,138.799 z" />
        </g>
        <path
           style="fill:#7fa100;fill-opacity:1;stroke:#000000;stroke-width:5;stroke-miterlimit:4;stroke-dasharray:none;stroke-opacity:1"
           id="path12720"
           d="M 332.20385,209.61925 C 332.20385,220.11266 323.69726,228.61925 313.20385,228.61925 C 302.71044,228.61925 294.20385,220.11266 294.20385,209.61925 C 294.20385,199.12584 302.71044,190.61925 313.20385,190.61925 C 323.69726,190.61925 332.20385,199.12584 332.20385,209.61925 L 332.20385,209.61925 z" />
        <path
           style="fill:#7fa100;fill-opacity:1;stroke:#000000;stroke-width:5;stroke-miterlimit:4;stroke-dasharray:none;stroke-opacity:1"
           id="path12722"
           d="M 396.83232,209.61925 C 396.83232,220.11266 388.32573,228.61925 377.83232,228.61925 C 367.33891,228.61925 358.83232,220.11266 358.83232,209.61925 C 358.83232,199.12584 367.33891,190.61925 377.83232,190.61925 C 388.32573,190.61925 396.83232,199.12584 396.83232,209.61925 L 396.83232,209.61925 z" />
        <path
           style="fill:#7fa100;fill-opacity:1;stroke:#000000;stroke-width:5;stroke-miterlimit:4;stroke-dasharray:none;stroke-opacity:1"
           id="path12724"
           d="M 363.8992,127.89885 C 363.8992,138.39226 355.39261,146.89885 344.8992,146.89885 C 334.40579,146.89885 325.8992,138.39226 325.8992,127.89885 C 325.8992,117.40544 334.40579,108.89885 344.8992,108.89885 C 355.39261,108.89885 363.8992,117.40544 363.8992,127.89885 L 363.8992,127.89885 z" />
      </g>
      <path
         sodipodi:nodetypes="cc"
         id="path3211"
         d="M 102.14286,12.928571 L 103.57143,42.928572"
         style="fill:none;fill-rule:evenodd;stroke:#0000d4;stroke-width:1px;stroke-linecap:butt;stroke-linejoin:miter;marker-end:url(#Arrow1Mend);stroke-opacity:1"
         transform="translate(321.34768,550.60054)" />
      <path
         sodipodi:nodetypes="cc"
         transform="translate(321.34768,550.60054)"
         id="path3213"
         d="M 101.78571,45.785714 L 89.642857,79.714285"
         style="fill:none;fill-rule:evenodd;stroke:#0000d4;stroke-width:1px;stroke-linecap:butt;stroke-linejoin:miter;marker-end:url(#Arrow1Mend);stroke-opacity:1" />
      <path
         transform="translate(321.34768,550.60054)"
         id="path3215"
         d="M 85.357143,85.428571 L 65.714286,117.21429"
         style="fill:none;fill-rule:evenodd;stroke:#0000d4;stroke-width:1px;stroke-linecap:butt;stroke-linejoin:miter;marker-end:url(#Arrow1Mend);stroke-opacity:1" />
      <path
         transform="translate(321.34768,550.60054)"
         id="path3217"
         d="M 70.714286,122.92857 L 89.642857,89.357143"
         style="fill:none;fill-rule:evenodd;stroke:#b00000;stroke-width:1px;stroke-linecap:butt;stroke-linejoin:miter;marker-end:url(#Arrow1Mend);stroke-opacity:1" />
      <path
         transform="translate(321.34768,550.60054)"
         id="path3219"
         d="M 93.214286,90.785714 L 109.64286,118.64286"
         style="fill:none;fill-rule:evenodd;stroke:#0000d4;stroke-width:1px;stroke-linecap:butt;stroke-linejoin:miter;marker-end:url(#Arrow1Mend);stroke-opacity:1" />
      <path
         transform="translate(321.34768,550.60054)"
         id="path3221"
         d="M 115.71429,114.71429 L 97.5,86.857143"
         style="fill:none;fill-rule:evenodd;stroke:#b00000;stroke-width:1px;stroke-linecap:butt;stroke-linejoin:miter;marker-end:url(#Arrow1Mend);stroke-opacity:1" />
      <path
         transform="translate(321.34768,550.60054)"
         id="path3223"
         d="M 97.142857,80.071428 L 106.78571,51.142857"
         style="fill:none;fill-rule:evenodd;stroke:#b00000;stroke-width:1px;stroke-linecap:butt;stroke-linejoin:miter;marker-end:url(#Arrow1Mend);stroke-opacity:1" />
      <path
         transform="translate(321.34768,550.60054)"
         id="path3225"
         d="M 107.85714,54.357143 L 118.21429,82.571428"
         style="fill:none;fill-rule:evenodd;stroke:#0000d4;stroke-width:1px;stroke-linecap:butt;stroke-linejoin:miter;marker-end:url(#Arrow1Mend);stroke-opacity:1" />
      <path
         transform="translate(321.34768,550.60054)"
         id="path3227"
         d="M 124.28571,79 L 111.78571,47.928571"
         style="fill:none;fill-rule:evenodd;stroke:#b00000;stroke-width:1px;stroke-linecap:butt;stroke-linejoin:miter;marker-end:url(#Arrow1Mend);stroke-opacity:1" />
      <path
         transform="translate(321.34768,550.60054)"
         id="path3229"
         d="M 110.71429,42.214286 L 109.64286,9.3571427"
         style="fill:none;fill-rule:evenodd;stroke:#b00000;stroke-width:1px;stroke-linecap:butt;stroke-linejoin:miter;marker-end:url(#Arrow1Mend);stroke-opacity:1" />
      <path
         transform="translate(321.34768,550.60054)"
         id="path3231"
         d="M 109.64286,5.7857141 L 110,-17.785715"
         style="fill:none;fill-rule:evenodd;stroke:#b00000;stroke-width:1px;stroke-linecap:butt;stroke-linejoin:miter;marker-end:url(#Arrow1Mend);stroke-opacity:1" />
      <path
         sodipodi:nodetypes="cc"
         transform="translate(321.34768,550.60054)"
         id="path3233"
         d="M 101.42857,-17.785715 L 102.14286,9.3571426"
         style="fill:none;fill-rule:evenodd;stroke:#0000d4;stroke-width:1px;stroke-linecap:butt;stroke-linejoin:miter;marker-end:url(#Arrow1Mend);stroke-opacity:1" />
      <path
         transform="matrix(0.7672899,0,0,0.7672899,339.59529,572.63275)"
         style="font-size:15px;font-style:normal;font-weight:normal;fill:#000000;fill-opacity:1;stroke:none;stroke-width:1px;stroke-linecap:butt;stroke-linejoin:miter;stroke-opacity:1;font-family:Bitstream Vera Sans"
         d="M 85.079102,116.64362 L 87.496094,116.64362 L 87.496094,108.30134 L 84.866699,108.82868 L 84.866699,107.48102 L 87.481445,106.95368 L 88.960938,106.95368 L 88.960938,116.64362 L 91.37793,116.64362 L 91.37793,117.88874 L 85.079102,117.88874 L 85.079102,116.64362"
         id="flowRoot4013" />
      <path
         transform="matrix(0.7672899,0,0,0.7672899,367.37449,566.06676)"
         style="font-size:15px;font-style:normal;font-weight:normal;fill:#000000;fill-opacity:1;stroke:none;stroke-width:1px;stroke-linecap:butt;stroke-linejoin:miter;stroke-opacity:1;font-family:Bitstream Vera Sans"
         d="M 85.079102,116.64362 L 87.496094,116.64362 L 87.496094,108.30134 L 84.866699,108.82868 L 84.866699,107.48102 L 87.481445,106.95368 L 88.960938,106.95368 L 88.960938,116.64362 L 91.37793,116.64362 L 91.37793,117.88874 L 85.079102,117.88874 L 85.079102,116.64362"
         id="flowRoot4025" />
      <path
         transform="matrix(0.7672899,0,0,0.7672899,378.23363,525.40812)"
         style="font-size:15px;font-style:normal;font-weight:normal;fill:#000000;fill-opacity:1;stroke:none;stroke-width:1px;stroke-linecap:butt;stroke-linejoin:miter;stroke-opacity:1;font-family:Bitstream Vera Sans"
         d="M 85.079102,116.64362 L 87.496094,116.64362 L 87.496094,108.30134 L 84.866699,108.82868 L 84.866699,107.48102 L 87.481445,106.95368 L 88.960938,106.95368 L 88.960938,116.64362 L 91.37793,116.64362 L 91.37793,117.88874 L 85.079102,117.88874 L 85.079102,116.64362"
         id="flowRoot4033" />
      <path
         transform="matrix(0.7672899,0,0,0.7672899,358.78819,535.25711)"
         style="font-size:15px;font-style:normal;font-weight:normal;fill:#000000;fill-opacity:1;stroke:none;stroke-width:1px;stroke-linecap:butt;stroke-linejoin:miter;stroke-opacity:1;font-family:Bitstream Vera Sans"
         d="M 89.305176,111.99274 C 90.013177,112.14411 90.564934,112.45906 90.960449,112.93757 C 91.360832,113.41609 91.561027,114.00691 91.561035,114.71003 C 91.561027,115.78913 91.189933,116.62409 90.447754,117.21491 C 89.70556,117.80573 88.650873,118.10114 87.283691,118.10114 C 86.824703,118.10114 86.351071,118.05475 85.862793,117.96198 C 85.379392,117.87409 84.878905,117.73981 84.361328,117.55915 L 84.361328,116.13092 C 84.771483,116.37018 85.220701,116.55085 85.708984,116.67292 C 86.197263,116.79499 86.707516,116.85602 87.239746,116.85602 C 88.167476,116.85602 88.873041,116.67292 89.356445,116.30671 C 89.84472,115.9405 90.08886,115.40827 90.088867,114.71003 C 90.08886,114.0655 89.86181,113.56257 89.407715,113.20124 C 88.95849,112.83503 88.33105,112.65193 87.525391,112.65192 L 86.250977,112.65192 L 86.250977,111.4361 L 87.583984,111.4361 C 88.311518,111.43611 88.868158,111.29206 89.253906,111.00397 C 89.639642,110.71101 89.832513,110.29109 89.83252,109.74421 C 89.832513,109.18269 89.632318,108.753 89.231934,108.45514 C 88.83642,108.15242 88.267573,108.00105 87.525391,108.00104 C 87.120113,108.00105 86.685543,108.045 86.22168,108.13288 C 85.75781,108.22078 85.247557,108.3575 84.690918,108.54303 L 84.690918,107.22467 C 85.252439,107.06844 85.777341,106.95125 86.265625,106.87311 C 86.758786,106.795 87.222652,106.75594 87.657227,106.75592 C 88.780268,106.75594 89.668939,107.01228 90.323242,107.52497 C 90.977531,108.03279 91.304679,108.72127 91.304688,109.5904 C 91.304679,110.19587 91.13134,110.70857 90.784668,111.12848 C 90.437981,111.54353 89.944817,111.83161 89.305176,111.99274"
         id="flowRoot4041" />
      <path
         transform="matrix(0.7672899,0,0,0.7672899,369.39479,491.06294)"
         style="font-size:15px;font-style:normal;font-weight:normal;fill:#000000;fill-opacity:1;stroke:none;stroke-width:1px;stroke-linecap:butt;stroke-linejoin:miter;stroke-opacity:1;font-family:Bitstream Vera Sans"
         d="M 84.837402,106.95368 L 90.645508,106.95368 L 90.645508,108.1988 L 86.192383,108.1988 L 86.192383,110.87946 C 86.407223,110.80622 86.622067,110.75251 86.836914,110.71833 C 87.051754,110.67927 87.266598,110.65974 87.481445,110.65973 C 88.702143,110.65974 89.668939,110.99421 90.381836,111.66315 C 91.094719,112.3321 91.451164,113.23786 91.451172,114.38044 C 91.451164,115.5572 91.084953,116.47272 90.352539,117.12702 C 89.620111,117.77643 88.587397,118.10114 87.254395,118.10114 C 86.795407,118.10114 86.326657,118.06208 85.848145,117.98395 C 85.37451,117.90583 84.883787,117.78864 84.375977,117.63239 L 84.375977,116.14557 C 84.815428,116.38483 85.269529,116.56306 85.738281,116.68024 C 86.207028,116.79743 86.702633,116.85602 87.225098,116.85602 C 88.069819,116.85602 88.738764,116.63386 89.231934,116.18952 C 89.725091,115.74518 89.971673,115.14216 89.97168,114.38044 C 89.971673,113.61872 89.725091,113.0157 89.231934,112.57135 C 88.738764,112.12702 88.069819,111.90486 87.225098,111.90485 C 86.829586,111.90486 86.434079,111.9488 86.038574,112.03669 C 85.647947,112.12458 85.247557,112.2613 84.837402,112.44684 L 84.837402,106.95368"
         id="flowRoot4049" />
      <path
         transform="matrix(0.7672899,0,0,0.7672899,369.89987,458.9906)"
         style="font-size:15px;font-style:normal;font-weight:normal;fill:#000000;fill-opacity:1;stroke:none;stroke-width:1px;stroke-linecap:butt;stroke-linejoin:miter;stroke-opacity:1;font-family:Bitstream Vera Sans"
         d="M 88.169922,111.83161 C 87.505855,111.83161 86.978512,112.05867 86.587891,112.51276 C 86.202145,112.96687 86.009275,113.58943 86.009277,114.38044 C 86.009275,115.16657 86.202145,115.78913 86.587891,116.24811 C 86.978512,116.70222 87.505855,116.92927 88.169922,116.92926 C 88.833979,116.92927 89.358881,116.70222 89.744629,116.24811 C 90.135247,115.78913 90.330559,115.16657 90.330566,114.38044 C 90.330559,113.58943 90.135247,112.96687 89.744629,112.51276 C 89.358881,112.05867 88.833979,111.83161 88.169922,111.83161 M 91.106934,107.19538 L 91.106934,108.54303 C 90.735832,108.36726 90.359856,108.23299 89.979004,108.1402 C 89.603021,108.04744 89.229486,108.00105 88.858398,108.00104 C 87.881831,108.00105 87.134762,108.33064 86.617188,108.98981 C 86.104489,109.649 85.811521,110.64509 85.738281,111.97809 C 86.026364,111.55329 86.387692,111.22859 86.822266,111.00397 C 87.256832,110.77449 87.735347,110.65974 88.257812,110.65973 C 89.356439,110.65974 90.223138,110.99421 90.85791,111.66315 C 91.49755,112.32722 91.817374,113.23298 91.817383,114.38044 C 91.817374,115.50349 91.485343,116.40436 90.821289,117.08307 C 90.15722,117.76178 89.273431,118.10114 88.169922,118.10114 C 86.90527,118.10114 85.938474,117.61774 85.269531,116.65094 C 84.600585,115.67927 84.266112,114.27302 84.266113,112.43219 C 84.266112,110.70369 84.676268,109.32673 85.496582,108.30134 C 86.316891,107.27107 87.417965,106.75594 88.799805,106.75592 C 89.170892,106.75594 89.544427,106.79256 89.92041,106.86579 C 90.301262,106.93904 90.69677,107.0489 91.106934,107.19538"
         id="flowRoot4057" />
    </g>
    <g
       id="g4151"
       transform="translate(-18.384776,-19.091883)">
      <path
         sodipodi:nodetypes="cc"
         id="path4117"
         d="M 522.23607,560.69053 L 522.01026,612.34019"
         style="fill:none;fill-rule:evenodd;stroke:#0000d4;stroke-width:1.69808555px;stroke-linecap:butt;stroke-linejoin:miter;marker-end:url(#Arrow1Mend);stroke-opacity:1" />
      <path
         sodipodi:nodetypes="cc"
         id="path4119"
         d="M 521.41153,698.10139 L 521.00637,645.13559"
         style="fill:none;fill-rule:evenodd;stroke:#b00000;stroke-width:1.69808555px;stroke-linecap:butt;stroke-linejoin:miter;marker-end:url(#Arrow1Mend);stroke-opacity:1" />
      <path
         transform="matrix(1.6980855,0,0,1.6980855,670.94479,542.10256)"
         style="font-size:15px;font-style:normal;font-weight:normal;fill:#000000;fill-opacity:1;stroke:none;stroke-width:1px;stroke-linecap:butt;stroke-linejoin:miter;stroke-opacity:1;font-family:Bitstream Vera Sans"
         d="M -75.339355,21.858464 L -75.339355,23.418523 C -75.837412,22.954664 -76.369638,22.607985 -76.936035,22.378484 C -77.497566,22.149001 -78.09571,22.034255 -78.730469,22.034245 C -79.980474,22.034255 -80.937504,22.417556 -81.601562,23.184148 C -82.265628,23.945874 -82.597659,25.049389 -82.597656,26.494694 C -82.597659,27.935128 -82.265628,29.038643 -81.601562,29.805241 C -80.937504,30.566961 -79.980474,30.94782 -78.730469,30.947819 C -78.09571,30.94782 -77.497566,30.833074 -76.936035,30.603581 C -76.369638,30.374091 -75.837412,30.027411 -75.339355,29.563542 L -75.339355,31.108952 C -75.856943,31.460515 -76.406259,31.724187 -76.987305,31.899968 C -77.563484,32.075749 -78.173835,32.16364 -78.818359,32.16364 C -80.473637,32.16364 -81.777347,31.658269 -82.729492,30.647526 C -83.681642,29.631904 -84.157716,28.247628 -84.157715,26.494694 C -84.157716,24.736889 -83.681642,23.352613 -82.729492,22.341862 C -81.777347,21.326248 -80.473637,20.818436 -78.818359,20.818425 C -78.164069,20.818436 -77.548836,20.906327 -76.972656,21.082097 C -76.39161,21.253006 -75.847177,21.511795 -75.339355,21.858464 M -69.370117,27.827702 C -70.458988,27.827706 -71.213382,27.952218 -71.633301,28.201237 C -72.053225,28.450264 -72.263186,28.875069 -72.263184,29.475651 C -72.263186,29.954169 -72.106936,30.335028 -71.794434,30.61823 C -71.477054,30.896551 -71.047367,31.035711 -70.505371,31.03571 C -69.758306,31.035711 -69.160162,30.772039 -68.710938,30.244694 C -68.256842,29.71247 -68.029792,29.006904 -68.029785,28.127995 L -68.029785,27.827702 L -69.370117,27.827702 M -66.682129,27.271062 L -66.682129,31.951237 L -68.029785,31.951237 L -68.029785,30.70612 C -68.337409,31.204168 -68.720709,31.57282 -69.179688,31.812077 C -69.638677,32.046452 -70.2002,32.16364 -70.864258,32.16364 C -71.704104,32.16364 -72.373049,31.929265 -72.871094,31.460515 C -73.364259,30.986883 -73.610841,30.354559 -73.61084,29.563542 C -73.610841,28.640694 -73.303224,27.944894 -72.687988,27.47614 C -72.067874,27.007395 -71.145023,26.77302 -69.919434,26.773015 L -68.029785,26.773015 L -68.029785,26.641179 C -68.029792,26.021068 -68.23487,25.542552 -68.64502,25.205632 C -69.050298,24.863842 -69.621587,24.692944 -70.358887,24.692937 C -70.82764,24.692944 -71.284183,24.749096 -71.728516,24.861394 C -72.172854,24.973705 -72.6001,25.142162 -73.010254,25.366765 L -73.010254,24.121648 C -72.517092,23.931226 -72.038577,23.789624 -71.574707,23.696843 C -71.110843,23.599195 -70.659184,23.550367 -70.219727,23.550359 C -69.033209,23.550367 -68.146979,23.857984 -67.561035,24.47321 C -66.975105,25.088451 -66.682137,26.021068 -66.682129,27.271062 M -63.898926,20.554753 L -62.55127,20.554753 L -62.55127,31.951237 L -63.898926,31.951237 L -63.898926,20.554753 M -59.73877,20.554753 L -58.391113,20.554753 L -58.391113,31.951237 L -59.73877,31.951237 L -59.73877,20.554753 M -49.470215,21.419011 L -49.470215,23.748112 L -46.694336,23.748112 L -46.694336,24.795476 L -49.470215,24.795476 L -49.470215,29.248601 C -49.470218,29.917548 -49.379886,30.347235 -49.199219,30.537663 C -49.013675,30.728094 -48.64014,30.823309 -48.078613,30.823308 L -46.694336,30.823308 L -46.694336,31.951237 L -48.078613,31.951237 C -49.118655,31.951237 -49.836428,31.758367 -50.231934,31.372624 C -50.627443,30.982 -50.825197,30.273993 -50.825195,29.248601 L -50.825195,24.795476 L -51.813965,24.795476 L -51.813965,23.748112 L -50.825195,23.748112 L -50.825195,21.419011 L -49.470215,21.419011 M -41.73584,24.692937 C -42.4585,24.692944 -43.029788,24.976147 -43.449707,25.542546 C -43.869631,26.104075 -44.079592,26.875559 -44.07959,27.856999 C -44.079592,28.838448 -43.872073,29.612373 -43.457031,30.178776 C -43.037113,30.740301 -42.463383,31.021063 -41.73584,31.021062 C -41.018072,31.021063 -40.449225,30.73786 -40.029297,30.171452 C -39.609382,29.605048 -39.399421,28.833565 -39.399414,27.856999 C -39.399421,26.885325 -39.609382,26.116282 -40.029297,25.54987 C -40.449225,24.978588 -41.018072,24.692944 -41.73584,24.692937 M -41.73584,23.550359 C -40.563971,23.550367 -39.643561,23.931226 -38.974609,24.692937 C -38.305672,25.454662 -37.9712,26.509348 -37.971191,27.856999 C -37.9712,29.199775 -38.305672,30.254462 -38.974609,31.021062 C -39.643561,31.782781 -40.563971,32.16364 -41.73584,32.16364 C -42.912601,32.16364 -43.835452,31.782781 -44.504395,31.021062 C -45.168458,30.254462 -45.500489,29.199775 -45.500488,27.856999 C -45.500489,26.509348 -45.168458,25.454662 -44.504395,24.692937 C -43.835452,23.931226 -42.912601,23.550367 -41.73584,23.550359 M -25.739746,23.989812 L -25.739746,25.264226 C -26.120612,25.06892 -26.516119,24.922436 -26.92627,24.824773 C -27.336431,24.727124 -27.761235,24.678295 -28.200684,24.678288 C -28.869632,24.678295 -29.372562,24.780834 -29.709473,24.985905 C -30.041506,25.19099 -30.207522,25.498607 -30.20752,25.908757 C -30.207522,26.221263 -30.087893,26.467844 -29.848633,26.648503 C -29.609378,26.824289 -29.128421,26.992746 -28.405762,27.153874 L -27.944336,27.256413 C -26.98731,27.461496 -26.3086,27.752023 -25.908203,28.127995 C -25.502937,28.499092 -25.3003,29.019111 -25.300293,29.688054 C -25.3003,30.449774 -25.603034,31.052801 -26.208496,31.497136 C -26.809088,31.941472 -27.636723,32.16364 -28.691406,32.16364 C -29.130863,32.16364 -29.589847,32.119694 -30.068359,32.031804 C -30.541994,31.948796 -31.042482,31.821843 -31.569824,31.650944 L -31.569824,30.259343 C -31.071779,30.518133 -30.581056,30.713446 -30.097656,30.84528 C -29.614261,30.972234 -29.135745,31.035711 -28.662109,31.03571 C -28.027348,31.035711 -27.539067,30.928289 -27.197266,30.713444 C -26.855474,30.493719 -26.684576,30.186102 -26.68457,29.790593 C -26.684576,29.424384 -26.809088,29.143623 -27.058105,28.948308 C -27.302251,28.752998 -27.841801,28.56501 -28.676758,28.384343 L -29.145508,28.27448 C -29.980471,28.098702 -30.583498,27.830148 -30.95459,27.468816 C -31.325685,27.102609 -31.511231,26.602122 -31.51123,25.967351 C -31.511231,25.195873 -31.237794,24.600171 -30.690918,24.180241 C -30.144045,23.760328 -29.367679,23.550367 -28.361816,23.550359 C -27.863774,23.550367 -27.395025,23.586988 -26.955566,23.660222 C -26.516119,23.733472 -26.110846,23.843335 -25.739746,23.989812 M -23.146973,23.748112 L -21.799316,23.748112 L -21.799316,31.951237 L -23.146973,31.951237 L -23.146973,23.748112 M -23.146973,20.554753 L -21.799316,20.554753 L -21.799316,22.261296 L -23.146973,22.261296 L -23.146973,20.554753 M -19.572754,23.748112 L -13.171387,23.748112 L -13.171387,24.978581 L -18.239746,30.874577 L -13.171387,30.874577 L -13.171387,31.951237 L -19.755859,31.951237 L -19.755859,30.720769 L -14.6875,24.824773 L -19.572754,24.824773 L -19.572754,23.748112 M -4.0893555,27.512761 L -4.0893555,28.171941 L -10.285645,28.171941 C -10.227053,29.099678 -9.948733,29.807685 -9.4506836,30.295964 C -8.9477575,30.779364 -8.249516,31.021063 -7.355957,31.021062 C -6.8383846,31.021063 -6.3378968,30.957586 -5.8544922,30.830632 C -5.3662181,30.70368 -4.8828201,30.513251 -4.4042969,30.259343 L -4.4042969,31.533757 C -4.8877029,31.738835 -5.3833079,31.895085 -5.8911133,32.002507 C -6.3989319,32.109929 -6.9140681,32.16364 -7.4365234,32.16364 C -8.745121,32.16364 -9.7827176,31.782781 -10.549316,31.021062 C -11.311036,30.259345 -11.691895,29.229072 -11.691895,27.930241 C -11.691895,26.587473 -11.330568,25.523021 -10.60791,24.736882 C -9.8803737,23.945874 -8.9013708,23.550367 -7.6708984,23.550359 C -6.5673888,23.550367 -5.6958076,23.906812 -5.0561523,24.619694 C -4.4116292,25.327709 -4.0893639,26.292063 -4.0893555,27.512761 M -5.4370117,27.117253 C -5.4467844,26.379954 -5.6543037,25.791576 -6.0595703,25.352116 C -6.459967,24.91267 -6.992193,24.692944 -7.65625,24.692937 C -8.4082072,24.692944 -9.011234,24.905346 -9.465332,25.330144 C -9.9145534,25.754955 -10.173342,26.353098 -10.241699,27.124577 L -5.4370117,27.117253 M 1.3598633,20.569401 C 0.70556241,21.692459 0.21972305,22.803297 -0.09765625,23.901921 C -0.41504194,25.000561 -0.57373319,26.113841 -0.57373047,27.241765 C -0.57373319,28.369698 -0.41504194,29.487861 -0.09765625,30.596257 C 0.22460586,31.699773 0.71044522,32.810612 1.3598633,33.928776 L 0.18798828,33.928776 C -0.54443634,32.781315 -1.0937522,31.653386 -1.4599609,30.544987 C -1.8212905,29.436591 -2.0019544,28.335518 -2.0019531,27.241765 C -2.0019544,26.152903 -1.8212905,25.056713 -1.4599609,23.953191 C -1.098635,22.849684 -0.54931915,21.721755 0.18798828,20.569401 L 1.3598633,20.569401 M 3.7695312,20.569401 L 4.9414062,20.569401 C 5.673825,21.721755 6.2206995,22.849684 6.5820312,23.953191 C 6.9482378,25.056713 7.1313431,26.152903 7.1313477,27.241765 C 7.1313431,28.335518 6.9482378,29.436591 6.5820312,30.544987 C 6.2206995,31.653386 5.673825,32.781315 4.9414062,33.928776 L 3.7695312,33.928776 C 4.4189435,32.810612 4.9023414,31.699773 5.2197266,30.596257 C 5.5419892,29.487861 5.7031219,28.369698 5.703125,27.241765 C 5.7031219,26.113841 5.5419892,25.000561 5.2197266,23.901921 C 4.9023414,22.803297 4.4189435,21.692459 3.7695312,20.569401"
         id="flowRoot4121" />
      <path
         transform="matrix(1.6980855,0,0,1.6980855,674.48032,622.00563)"
         style="font-size:15px;font-style:normal;font-weight:normal;fill:#000000;fill-opacity:1;stroke:none;stroke-width:1px;stroke-linecap:butt;stroke-linejoin:miter;stroke-opacity:1;font-family:Bitstream Vera Sans"
         d="M -78.342285,26.824284 C -78.024909,26.931711 -77.717292,27.161203 -77.419434,27.512761 C -77.116707,27.864327 -76.813973,28.347725 -76.51123,28.962956 L -75.009766,31.951237 L -76.599121,31.951237 L -77.998047,29.146062 C -78.359382,28.413643 -78.710944,27.927804 -79.052734,27.688542 C -79.389654,27.449289 -79.851079,27.32966 -80.437012,27.329655 L -82.04834,27.329655 L -82.04834,31.951237 L -83.527832,31.951237 L -83.527832,21.016179 L -80.187988,21.016179 C -78.937994,21.01619 -78.005378,21.27742 -77.390137,21.79987 C -76.774911,22.322341 -76.467294,23.110914 -76.467285,24.165593 C -76.467294,24.854077 -76.628426,25.425365 -76.950684,25.87946 C -77.268074,26.333567 -77.731941,26.648508 -78.342285,26.824284 M -82.04834,22.231999 L -82.04834,26.113835 L -80.187988,26.113835 C -79.475103,26.113841 -78.937994,25.950267 -78.57666,25.623112 C -78.210456,25.291088 -78.027351,24.805248 -78.027344,24.165593 C -78.027351,23.525953 -78.210456,23.044996 -78.57666,22.722722 C -78.937994,22.395583 -79.475103,22.232009 -80.187988,22.231999 L -82.04834,22.231999 M -66.813965,27.512761 L -66.813965,28.171941 L -73.010254,28.171941 C -72.951662,29.099678 -72.673342,29.807685 -72.175293,30.295964 C -71.672367,30.779364 -70.974125,31.021063 -70.080566,31.021062 C -69.562994,31.021063 -69.062506,30.957586 -68.579102,30.830632 C -68.090827,30.70368 -67.60743,30.513251 -67.128906,30.259343 L -67.128906,31.533757 C -67.612312,31.738835 -68.107917,31.895085 -68.615723,32.002507 C -69.123541,32.109929 -69.638677,32.16364 -70.161133,32.16364 C -71.46973,32.16364 -72.507327,31.782781 -73.273926,31.021062 C -74.035646,30.259345 -74.416505,29.229072 -74.416504,27.930241 C -74.416505,26.587473 -74.055177,25.523021 -73.33252,24.736882 C -72.604983,23.945874 -71.62598,23.550367 -70.395508,23.550359 C -69.291998,23.550367 -68.420417,23.906812 -67.780762,24.619694 C -67.136239,25.327709 -66.813973,26.292063 -66.813965,27.512761 M -68.161621,27.117253 C -68.171394,26.379954 -68.378913,25.791576 -68.78418,25.352116 C -69.184576,24.91267 -69.716802,24.692944 -70.380859,24.692937 C -71.132817,24.692944 -71.735843,24.905346 -72.189941,25.330144 C -72.639163,25.754955 -72.897952,26.353098 -72.966309,27.124577 L -68.161621,27.117253 M -63.269043,21.419011 L -63.269043,23.748112 L -60.493164,23.748112 L -60.493164,24.795476 L -63.269043,24.795476 L -63.269043,29.248601 C -63.269046,29.917548 -63.178714,30.347235 -62.998047,30.537663 C -62.812503,30.728094 -62.438968,30.823309 -61.877441,30.823308 L -60.493164,30.823308 L -60.493164,31.951237 L -61.877441,31.951237 C -62.917484,31.951237 -63.635256,31.758367 -64.030762,31.372624 C -64.426271,30.982 -64.624025,30.273993 -64.624023,29.248601 L -64.624023,24.795476 L -65.612793,24.795476 L -65.612793,23.748112 L -64.624023,23.748112 L -64.624023,21.419011 L -63.269043,21.419011 M -58.852539,28.713933 L -58.852539,23.748112 L -57.504883,23.748112 L -57.504883,28.662663 C -57.504885,29.439033 -57.353518,30.022528 -57.050781,30.413151 C -56.74805,30.798895 -56.293949,30.991766 -55.688477,30.991765 C -54.960943,30.991766 -54.387213,30.759832 -53.967285,30.295964 C -53.542487,29.832099 -53.330085,29.199775 -53.330078,28.398991 L -53.330078,23.748112 L -51.982422,23.748112 L -51.982422,31.951237 L -53.330078,31.951237 L -53.330078,30.691472 C -53.657233,31.189519 -54.038092,31.560613 -54.472656,31.804753 C -54.902349,32.044011 -55.402837,32.16364 -55.974121,32.16364 C -56.916507,32.16364 -57.631838,31.870671 -58.120117,31.284734 C -58.6084,30.698797 -58.85254,29.841865 -58.852539,28.713933 M -44.438477,25.007878 C -44.58985,24.919994 -44.755865,24.856518 -44.936523,24.817448 C -45.11231,24.77351 -45.307622,24.751538 -45.522461,24.75153 C -46.284184,24.751538 -46.870121,25.000561 -47.280273,25.498601 C -47.68555,25.991771 -47.888186,26.702219 -47.888184,27.629948 L -47.888184,31.951237 L -49.243164,31.951237 L -49.243164,23.748112 L -47.888184,23.748112 L -47.888184,25.022526 C -47.604983,24.524487 -47.236331,24.155835 -46.782227,23.916569 C -46.328129,23.672437 -45.776372,23.550367 -45.126953,23.550359 C -45.034185,23.550367 -44.931646,23.557691 -44.819336,23.572331 C -44.707037,23.582105 -44.582526,23.599195 -44.445801,23.623601 L -44.438477,25.007878 M -36.455078,27.000066 L -36.455078,31.951237 L -37.802734,31.951237 L -37.802734,27.044011 C -37.802741,26.267649 -37.954108,25.686595 -38.256836,25.300847 C -38.559576,24.915112 -39.013678,24.722241 -39.619141,24.722234 C -40.346684,24.722241 -40.920414,24.954174 -41.340332,25.418034 C -41.760257,25.881908 -41.970218,26.514231 -41.970215,27.315007 L -41.970215,31.951237 L -43.325195,31.951237 L -43.325195,23.748112 L -41.970215,23.748112 L -41.970215,25.022526 C -41.647952,24.52937 -41.269535,24.160718 -40.834961,23.916569 C -40.395512,23.672437 -39.890142,23.550367 -39.318848,23.550359 C -38.376471,23.550367 -37.663581,23.843335 -37.180176,24.429265 C -36.696785,25.010326 -36.455086,25.867259 -36.455078,27.000066 M -29.943848,23.748112 L -28.515625,23.748112 L -25.952148,30.632878 L -23.388672,23.748112 L -21.960449,23.748112 L -25.036621,31.951237 L -26.867676,31.951237 L -29.943848,23.748112 M -16.37207,27.827702 C -17.460942,27.827706 -18.215335,27.952218 -18.635254,28.201237 C -19.055178,28.450264 -19.265139,28.875069 -19.265137,29.475651 C -19.265139,29.954169 -19.108889,30.335028 -18.796387,30.61823 C -18.479007,30.896551 -18.04932,31.035711 -17.507324,31.03571 C -16.760259,31.035711 -16.162115,30.772039 -15.712891,30.244694 C -15.258795,29.71247 -15.031745,29.006904 -15.031738,28.127995 L -15.031738,27.827702 L -16.37207,27.827702 M -13.684082,27.271062 L -13.684082,31.951237 L -15.031738,31.951237 L -15.031738,30.70612 C -15.339362,31.204168 -15.722662,31.57282 -16.181641,31.812077 C -16.64063,32.046452 -17.202153,32.16364 -17.866211,32.16364 C -18.706057,32.16364 -19.375002,31.929265 -19.873047,31.460515 C -20.366212,30.986883 -20.612794,30.354559 -20.612793,29.563542 C -20.612794,28.640694 -20.305177,27.944894 -19.689941,27.47614 C -19.069827,27.007395 -18.146976,26.77302 -16.921387,26.773015 L -15.031738,26.773015 L -15.031738,26.641179 C -15.031745,26.021068 -15.236823,25.542552 -15.646973,25.205632 C -16.052252,24.863842 -16.62354,24.692944 -17.36084,24.692937 C -17.829594,24.692944 -18.286136,24.749096 -18.730469,24.861394 C -19.174807,24.973705 -19.602053,25.142162 -20.012207,25.366765 L -20.012207,24.121648 C -19.519045,23.931226 -19.04053,23.789624 -18.57666,23.696843 C -18.112796,23.599195 -17.661137,23.550367 -17.22168,23.550359 C -16.035162,23.550367 -15.148932,23.857984 -14.562988,24.47321 C -13.977058,25.088451 -13.68409,26.021068 -13.684082,27.271062 M -10.900879,20.554753 L -9.5532227,20.554753 L -9.5532227,31.951237 L -10.900879,31.951237 L -10.900879,20.554753 M -6.8798828,28.713933 L -6.8798828,23.748112 L -5.5322266,23.748112 L -5.5322266,28.662663 C -5.5322292,29.439033 -5.3808621,30.022528 -5.078125,30.413151 C -4.775394,30.798895 -4.3212929,30.991766 -3.7158203,30.991765 C -2.9882864,30.991766 -2.4145565,30.759832 -1.9946289,30.295964 C -1.5698308,29.832099 -1.3574287,29.199775 -1.3574219,28.398991 L -1.3574219,23.748112 L -0.009765625,23.748112 L -0.009765625,31.951237 L -1.3574219,31.951237 L -1.3574219,30.691472 C -1.6845768,31.189519 -2.0654358,31.560613 -2.5,31.804753 C -2.9296927,32.044011 -3.4301805,32.16364 -4.0014648,32.16364 C -4.9438509,32.16364 -5.6591822,31.870671 -6.1474609,31.284734 C -6.6357437,30.698797 -6.8798841,29.841865 -6.8798828,28.713933 M 9.7973633,27.512761 L 9.7973633,28.171941 L 3.6010742,28.171941 C 3.6596657,29.099678 3.9379857,29.807685 4.4360352,30.295964 C 4.9389613,30.779364 5.6372028,31.021063 6.5307617,31.021062 C 7.0483342,31.021063 7.5488219,30.957586 8.0322266,30.830632 C 8.5205007,30.70368 9.0038986,30.513251 9.4824219,30.259343 L 9.4824219,31.533757 C 8.9990158,31.738835 8.5034108,31.895085 7.9956055,32.002507 C 7.4877868,32.109929 6.9726506,32.16364 6.4501953,32.16364 C 5.1415978,32.16364 4.1040012,31.782781 3.3374023,31.021062 C 2.5756824,30.259345 2.1948234,29.229072 2.1948242,27.930241 C 2.1948234,26.587473 2.5561512,25.523021 3.2788086,24.736882 C 4.006345,23.945874 4.9853479,23.550367 6.2158203,23.550359 C 7.31933,23.550367 8.1909111,23.906812 8.8305664,24.619694 C 9.4750895,25.327709 9.7973549,26.292063 9.7973633,27.512761 M 8.449707,27.117253 C 8.4399343,26.379954 8.232415,25.791576 7.8271484,25.352116 C 7.4267518,24.91267 6.8945257,24.692944 6.2304688,24.692937 C 5.4785115,24.692944 4.8754848,24.905346 4.4213867,25.330144 C 3.9721654,25.754955 3.7133766,26.353098 3.6450195,27.124577 L 8.449707,27.117253"
         id="flowRoot4133" />
    </g>
  </g>
</svg>
