<?xml version="1.0" encoding="UTF-8" standalone="no"?>
<!-- Created with Inkscape (http://www.inkscape.org/) -->
<svg
   xmlns:svg="http://www.w3.org/2000/svg"
   xmlns="http://www.w3.org/2000/svg"
   version="1.0"
   width="103"
   height="89"
   id="svg2757">
  <defs
     id="defs2759" />
  <g
     transform="translate(-231.52284,-333.61023)"
     id="layer1">
    <g
       transform="matrix(0.4672489,0,0,0.4672489,116.51702,278.8024)"
       id="g2729"
       style="fill:#7fa100;fill-opacity:1">
      <path
         d="M 441.60722,209.11412 L 378.14523,141.09366"
         id="path2731"
         style="fill:#7fa100;fill-opacity:1;fill-rule:evenodd;stroke:#000000;stroke-width:4.99947691;stroke-linecap:butt;stroke-linejoin:miter;stroke-miterlimit:4;stroke-dasharray:none;stroke-opacity:1" />
      <path
         d="M 358.37349,287.05117 L 311.55824,210.70733"
         id="path2733"
         style="fill:#7fa100;fill-opacity:1;fill-rule:evenodd;stroke:#000000;stroke-width:4.99947691;stroke-linecap:butt;stroke-linejoin:miter;stroke-miterlimit:4;stroke-dasharray:none;stroke-opacity:1" />
      <path
         d="M 312.21658,212.1408 L 266.91468,287.13103"
         id="path2735"
         style="fill:#7fa100;fill-opacity:1;fill-rule:evenodd;stroke:#000000;stroke-width:4.99947691;stroke-linecap:butt;stroke-linejoin:miter;stroke-miterlimit:4;stroke-dasharray:none;stroke-opacity:1" />
      <path
         d="M 375.77689,205.33077 L 375.11854,138.82365"
         id="path2737"
         style="fill:#7fa100;fill-opacity:1;fill-rule:evenodd;stroke:#000000;stroke-width:4.99947691;stroke-linecap:butt;stroke-linejoin:miter;stroke-miterlimit:4;stroke-dasharray:none;stroke-opacity:1" />
      <path
         d="M 310.70324,210.62746 L 378.14523,138.82365"
         id="path2739"
         style="fill:#7fa100;fill-opacity:1;fill-rule:evenodd;stroke:#000000;stroke-width:4.99947691;stroke-linecap:butt;stroke-linejoin:miter;stroke-miterlimit:4;stroke-dasharray:none;stroke-opacity:1" />
      <path
         d="M 286.63396,286.13114 C 286.63396,296.62455 278.12737,305.13114 267.63396,305.13114 C 257.14055,305.13114 248.63396,296.62455 248.63396,286.13114 C 248.63396,275.63773 257.14055,267.13114 267.63396,267.13114 C 278.12737,267.13114 286.63396,275.63773 286.63396,286.13114 L 286.63396,286.13114 z"
         id="path2741"
         style="fill:#7fa100;fill-opacity:1;stroke:#000000;stroke-width:5;stroke-miterlimit:4;stroke-dasharray:none;stroke-opacity:1" />
      <path
         d="M 377.77376,286.13114 C 377.77376,296.62455 369.26717,305.13114 358.77376,305.13114 C 348.28035,305.13114 339.77376,296.62455 339.77376,286.13114 C 339.77376,275.63773 348.28035,267.13114 358.77376,267.13114 C 369.26717,267.13114 377.77376,275.63773 377.77376,286.13114 L 377.77376,286.13114 z"
         id="path2743"
         style="fill:#7fa100;fill-opacity:1;stroke:#000000;stroke-width:5;stroke-miterlimit:4;stroke-dasharray:none;stroke-opacity:1" />
      <g
         id="g2745">
        <path
           d="M 396.57384,138.799 C 396.57384,149.29241 388.06725,157.799 377.57384,157.799 C 367.08043,157.799 358.57384,149.29241 358.57384,138.799 C 358.57384,128.30559 367.08043,119.799 377.57384,119.799 C 388.06725,119.799 396.57384,128.30559 396.57384,138.799 L 396.57384,138.799 z"
           id="path2747"
           style="fill:#7fa100;fill-opacity:1;stroke:#000000;stroke-width:5;stroke-miterlimit:4;stroke-dasharray:none;stroke-opacity:1" />
        <path
           d="M 388.25045,138.799 C 388.25045,144.69553 383.47037,149.47562 377.57383,149.47562 C 371.67729,149.47562 366.89721,144.69553 366.89721,138.799 C 366.89721,132.90246 371.67729,128.12238 377.57383,128.12238 C 383.47037,128.12238 388.25045,132.90246 388.25045,138.799 L 388.25045,138.799 z"
           id="path2749"
           style="fill:#7fa100;fill-opacity:1;stroke:#000000;stroke-width:4.99999952;stroke-miterlimit:4;stroke-dasharray:none;stroke-opacity:1" />
      </g>
      <path
         d="M 332.20385,209.61925 C 332.20385,220.11266 323.69726,228.61925 313.20385,228.61925 C 302.71044,228.61925 294.20385,220.11266 294.20385,209.61925 C 294.20385,199.12584 302.71044,190.61925 313.20385,190.61925 C 323.69726,190.61925 332.20385,199.12584 332.20385,209.61925 L 332.20385,209.61925 z"
         id="path2751"
         style="fill:#7fa100;fill-opacity:1;stroke:#000000;stroke-width:5;stroke-miterlimit:4;stroke-dasharray:none;stroke-opacity:1" />
      <path
         d="M 396.83232,209.61925 C 396.83232,220.11266 388.32573,228.61925 377.83232,228.61925 C 367.33891,228.61925 358.83232,220.11266 358.83232,209.61925 C 358.83232,199.12584 367.33891,190.61925 377.83232,190.61925 C 388.32573,190.61925 396.83232,199.12584 396.83232,209.61925 L 396.83232,209.61925 z"
         id="path2753"
         style="fill:#7fa100;fill-opacity:1;stroke:#000000;stroke-width:5;stroke-miterlimit:4;stroke-dasharray:none;stroke-opacity:1" />
      <path
         d="M 463.36396,209.61925 C 463.36396,220.11266 454.85737,228.61925 444.36396,228.61925 C 433.87055,228.61925 425.36396,220.11266 425.36396,209.61925 C 425.36396,199.12584 433.87055,190.61925 444.36396,190.61925 C 454.85737,190.61925 463.36396,199.12584 463.36396,209.61925 L 463.36396,209.61925 z"
         id="path2755"
         style="fill:#7fa100;fill-opacity:1;stroke:#000000;stroke-width:5;stroke-miterlimit:4;stroke-dasharray:none;stroke-opacity:1" />
    </g>
  </g>
</svg>
