<?xml version="1.0" encoding="UTF-8" standalone="no"?>
<!-- Created with Inkscape (http://www.inkscape.org/) -->
<svg
   xmlns:dc="http://purl.org/dc/elements/1.1/"
   xmlns:cc="http://creativecommons.org/ns#"
   xmlns:rdf="http://www.w3.org/1999/02/22-rdf-syntax-ns#"
   xmlns:svg="http://www.w3.org/2000/svg"
   xmlns="http://www.w3.org/2000/svg"
   xmlns:sodipodi="http://sodipodi.sourceforge.net/DTD/sodipodi-0.dtd"
   xmlns:inkscape="http://www.inkscape.org/namespaces/inkscape"
   width="128"
   height="107"
   id="svg15692"
   sodipodi:version="0.32"
   inkscape:version="0.46"
   version="1.0"
   sodipodi:docname="weighted-graph.svg"
   inkscape:output_extension="org.inkscape.output.svg.inkscape">
  <defs
     id="defs15694">
    <inkscape:perspective
       sodipodi:type="inkscape:persp3d"
       inkscape:vp_x="0 : 526.18109 : 1"
       inkscape:vp_y="0 : 1000 : 0"
       inkscape:vp_z="744.09448 : 526.18109 : 1"
       inkscape:persp3d-origin="372.04724 : 350.78739 : 1"
       id="perspective15700" />
  </defs>
  <sodipodi:namedview
     id="base"
     pagecolor="#ffffff"
     bordercolor="#666666"
     borderopacity="1.0"
     gridtolerance="10000"
     guidetolerance="10"
     objecttolerance="10"
     inkscape:pageopacity="0.0"
     inkscape:pageshadow="2"
     inkscape:zoom="2.8"
     inkscape:cx="70.657955"
     inkscape:cy="42.995567"
     inkscape:document-units="px"
     inkscape:current-layer="layer1"
     showgrid="false"
     inkscape:window-width="1066"
     inkscape:window-height="719"
     inkscape:window-x="4"
     inkscape:window-y="73" />
  <metadata
     id="metadata15697">
    <rdf:RDF>
      <cc:Work
         rdf:about="">
        <dc:format>image/svg+xml</dc:format>
        <dc:type
           rdf:resource="http://purl.org/dc/dcmitype/StillImage" />
      </cc:Work>
    </rdf:RDF>
  </metadata>
  <g
     inkscape:label="Layer 1"
     inkscape:groupmode="layer"
     id="layer1"
     transform="translate(-358.84405,-187.43361)">
    <g
       inkscape:export-ydpi="90"
       inkscape:export-xdpi="90"
       inkscape:export-filename="/m/fs/user7/a/93/nfalzon/trees/weighted-graph.png"
       transform="matrix(0.4672489,0,0,0.4672489,303.9423,131.89539)"
       id="g11015">
      <path
         d="M 135.19715,171.66147 L 149.32295,248.05576"
         id="path11017"
         style="fill:none;fill-rule:evenodd;stroke:#000000;stroke-width:5;stroke-linecap:butt;stroke-linejoin:miter;stroke-miterlimit:4;stroke-dasharray:none;stroke-opacity:1"
         sodipodi:nodetypes="cc" />
      <path
         d="M 271,139.36218 L 318,326.36218"
         id="path11019"
         style="fill:none;fill-rule:evenodd;stroke:#000000;stroke-width:5;stroke-linecap:butt;stroke-linejoin:miter;stroke-miterlimit:4;stroke-dasharray:none;stroke-opacity:1" />
      <path
         d="M 371,230.36218 L 164,323.36218"
         id="path11021"
         style="fill:none;fill-rule:evenodd;stroke:#000000;stroke-width:5;stroke-linecap:butt;stroke-linejoin:miter;stroke-miterlimit:4;stroke-dasharray:none;stroke-opacity:1" />
      <path
         d="M 378,231.36218 L 140,172.36218"
         id="path11023"
         style="fill:none;fill-rule:evenodd;stroke:#000000;stroke-width:5;stroke-linecap:butt;stroke-linejoin:miter;stroke-miterlimit:4;stroke-dasharray:none;stroke-opacity:1" />
      <path
         d="M 159,172.36218 C 159,182.85559 150.49341,191.36218 140,191.36218 C 129.50659,191.36218 121,182.85559 121,172.36218 C 121,161.86877 129.50659,153.36218 140,153.36218 C 150.49341,153.36218 159,161.86877 159,172.36218 L 159,172.36218 z"
         transform="translate(-1,0)"
         id="path11025"
         style="fill:#c83737;fill-opacity:1;stroke:#000000;stroke-width:5;stroke-miterlimit:4;stroke-dasharray:none;stroke-opacity:1" />
      <path
         d="M 159,172.36218 C 159,182.85559 150.49341,191.36218 140,191.36218 C 129.50659,191.36218 121,182.85559 121,172.36218 C 121,161.86877 129.50659,153.36218 140,153.36218 C 150.49341,153.36218 159,161.86877 159,172.36218 L 159,172.36218 z"
         transform="translate(131,-32)"
         id="path11027"
         style="fill:#c83737;fill-opacity:1;stroke:#000000;stroke-width:5;stroke-miterlimit:4;stroke-dasharray:none;stroke-opacity:1" />
      <path
         d="M 174.22795,267.77788 C 174.22795,278.27129 165.72136,286.77788 155.22795,286.77788 C 144.73454,286.77788 136.22795,278.27129 136.22795,267.77788 C 136.22795,257.28447 144.73454,248.77788 155.22795,248.77788 C 165.72136,248.77788 174.22795,257.28447 174.22795,267.77788 L 174.22795,267.77788 z"
         id="path11029"
         style="fill:#c83737;fill-opacity:1;stroke:#000000;stroke-width:5;stroke-miterlimit:4;stroke-dasharray:none;stroke-opacity:1" />
      <path
         d="M 159,172.36218 C 159,182.85559 150.49341,191.36218 140,191.36218 C 129.50659,191.36218 121,182.85559 121,172.36218 C 121,161.86877 129.50659,153.36218 140,153.36218 C 150.49341,153.36218 159,161.86877 159,172.36218 L 159,172.36218 z"
         id="path11031"
         style="fill:#c83737;fill-opacity:1;stroke:#000000;stroke-width:5;stroke-miterlimit:4;stroke-dasharray:none;stroke-opacity:1"
         transform="translate(230,58)" />
      <path
         d="M 159,172.36218 C 159,182.85559 150.49341,191.36218 140,191.36218 C 129.50659,191.36218 121,182.85559 121,172.36218 C 121,161.86877 129.50659,153.36218 140,153.36218 C 150.49341,153.36218 159,161.86877 159,172.36218 L 159,172.36218 z"
         transform="translate(25,153)"
         id="path11033"
         style="fill:#c83737;fill-opacity:1;stroke:#000000;stroke-width:5;stroke-miterlimit:4;stroke-dasharray:none;stroke-opacity:1" />
      <path
         d="M 159,172.36218 C 159,182.85559 150.49341,191.36218 140,191.36218 C 129.50659,191.36218 121,182.85559 121,172.36218 C 121,161.86877 129.50659,153.36218 140,153.36218 C 150.49341,153.36218 159,161.86877 159,172.36218 L 159,172.36218 z"
         transform="translate(178,154)"
         id="path11035"
         style="fill:#c83737;fill-opacity:1;stroke:#000000;stroke-width:5;stroke-miterlimit:4;stroke-dasharray:none;stroke-opacity:1" />
      <path
         style="fill:none;fill-rule:evenodd;stroke:#000000;stroke-width:5;stroke-linecap:butt;stroke-linejoin:miter;stroke-miterlimit:4;stroke-dasharray:none;stroke-opacity:1"
         id="path11037"
         d="M 184.9478,332.12484 L 302.07847,330.03923"
         sodipodi:nodetypes="cc" />
      <path
         sodipodi:nodetypes="cc"
         d="M 177.94067,312.50486 L 258.63424,156.2623"
         id="path11039"
         style="fill:none;fill-rule:evenodd;stroke:#000000;stroke-width:5;stroke-linecap:butt;stroke-linejoin:miter;stroke-miterlimit:4;stroke-dasharray:none;stroke-opacity:1" />
      <path
         sodipodi:nodetypes="cc"
         style="fill:none;fill-rule:evenodd;stroke:#000000;stroke-width:5;stroke-linecap:butt;stroke-linejoin:miter;stroke-miterlimit:4;stroke-dasharray:none;stroke-opacity:1"
         id="path11041"
         d="M 157.61998,287.9799 L 162.6365,307.6164" />
      <path
         sodipodi:nodetypes="cc"
         style="fill:none;fill-rule:evenodd;stroke:#000000;stroke-width:5;stroke-linecap:butt;stroke-linejoin:miter;stroke-miterlimit:4;stroke-dasharray:none;stroke-opacity:1"
         id="path11043"
         d="M 287.25196,152.04149 L 353.93126,216.52365" />
      <path
         transform="matrix(1.9946534,0,0,1.9946534,-478.48598,288.38395)"
         style="font-size:15px;font-style:normal;font-weight:normal;fill:#000000;fill-opacity:1;stroke:none;stroke-width:1px;stroke-linecap:butt;stroke-linejoin:miter;stroke-opacity:1;font-family:Bitstream Vera Sans"
         d="M 402.67285,-58.60638 L 405.08984,-58.60638 L 405.08984,-66.948665 L 402.46045,-66.421321 L 402.46045,-67.768977 L 405.0752,-68.296321 L 406.55469,-68.296321 L 406.55469,-58.60638 L 408.97168,-58.60638 L 408.97168,-57.361263 L 402.67285,-57.361263 L 402.67285,-58.60638"
         id="flowRoot11045" />
      <path
         transform="matrix(1.9946534,0,0,1.9946534,-560.27004,388.85191)"
         style="font-size:15px;font-style:normal;font-weight:normal;fill:#000000;fill-opacity:1;stroke:none;stroke-width:1px;stroke-linecap:butt;stroke-linejoin:miter;stroke-opacity:1;font-family:Bitstream Vera Sans"
         d="M 403.69092,-58.60638 L 408.85449,-58.60638 L 408.85449,-57.361263 L 401.91113,-57.361263 L 401.91113,-58.60638 C 402.47265,-59.187433 403.23681,-59.96624 404.20361,-60.942806 C 405.17529,-61.924246 405.78564,-62.55657 406.03467,-62.839778 C 406.5083,-63.371999 406.83788,-63.821217 407.02344,-64.187434 C 407.21386,-64.558521 407.30908,-64.92229 407.30908,-65.278743 C 407.30908,-65.859789 407.104,-66.333422 406.69385,-66.699641 C 406.28857,-67.065843 405.75878,-67.248948 405.10449,-67.248958 C 404.64062,-67.248948 404.1499,-67.168382 403.63232,-67.007259 C 403.11963,-66.846116 402.57031,-66.601976 401.98438,-66.274837 L 401.98438,-67.768977 C 402.58008,-68.008225 403.13672,-68.188888 403.6543,-68.31097 C 404.17187,-68.433029 404.6455,-68.494064 405.0752,-68.494075 C 406.208,-68.494064 407.11132,-68.210861 407.78516,-67.644466 C 408.45898,-67.07805 408.79589,-66.321215 408.7959,-65.373958 C 408.79589,-64.924732 408.71044,-64.497486 408.53955,-64.09222 C 408.37353,-63.691823 408.06835,-63.21819 407.62402,-62.671321 C 407.50195,-62.529714 407.11376,-62.119559 406.45947,-61.440852 C 405.80517,-60.767021 404.88232,-59.822198 403.69092,-58.60638"
         id="flowRoot11053" />
      <path
         transform="matrix(1.9946534,0,0,1.9946534,-525.74836,363.89547)"
         style="font-size:15px;font-style:normal;font-weight:normal;fill:#000000;fill-opacity:1;stroke:none;stroke-width:1px;stroke-linecap:butt;stroke-linejoin:miter;stroke-opacity:1;font-family:Bitstream Vera Sans"
         d="M 406.89893,-63.257259 C 407.60693,-63.105886 408.15868,-62.790945 408.5542,-62.312434 C 408.95458,-61.833914 409.15478,-61.243095 409.15479,-60.539974 C 409.15478,-59.46087 408.78368,-58.62591 408.0415,-58.035091 C 407.29931,-57.44427 406.24462,-57.14886 404.87744,-57.14886 C 404.41845,-57.14886 403.94482,-57.195247 403.45654,-57.28802 C 402.97314,-57.375911 402.47265,-57.510188 401.95508,-57.690852 L 401.95508,-59.119075 C 402.36523,-58.879816 402.81445,-58.699152 403.30273,-58.577083 C 403.79101,-58.455011 404.30127,-58.393976 404.8335,-58.393977 C 405.76123,-58.393976 406.46679,-58.577082 406.9502,-58.943294 C 407.43847,-59.309503 407.68261,-59.841729 407.68262,-60.539974 C 407.68261,-61.184501 407.45556,-61.68743 407.00146,-62.048763 C 406.55224,-62.414968 405.9248,-62.598074 405.11914,-62.598079 L 403.84473,-62.598079 L 403.84473,-63.813899 L 405.17773,-63.813899 C 405.90527,-63.813893 406.46191,-63.957936 406.84766,-64.246028 C 407.23339,-64.53899 407.42626,-64.958911 407.42627,-65.505794 C 407.42626,-66.067309 407.22607,-66.496996 406.82568,-66.794856 C 406.43017,-67.097581 405.86132,-67.248948 405.11914,-67.248958 C 404.71386,-67.248948 404.27929,-67.205003 403.81543,-67.117122 C 403.35156,-67.029222 402.84131,-66.892503 402.28467,-66.706966 L 402.28467,-68.025325 C 402.84619,-68.181564 403.37109,-68.298752 403.85938,-68.376888 C 404.35254,-68.455001 404.8164,-68.494064 405.25098,-68.494075 C 406.37402,-68.494064 407.26269,-68.237717 407.91699,-67.725032 C 408.57128,-67.21721 408.89843,-66.528734 408.89844,-65.659602 C 408.89843,-65.054126 408.72509,-64.541431 408.37842,-64.121516 C 408.03173,-63.706471 407.53857,-63.418385 406.89893,-63.257259"
         id="flowRoot11087" />
      <path
         transform="matrix(1.9946534,0,0,1.9946534,-608.22543,358.59878)"
         style="font-size:15px;font-style:normal;font-weight:normal;fill:#000000;fill-opacity:1;stroke:none;stroke-width:1px;stroke-linecap:butt;stroke-linejoin:miter;stroke-opacity:1;font-family:Bitstream Vera Sans"
         d="M 406.89893,-63.257259 C 407.60693,-63.105886 408.15868,-62.790945 408.5542,-62.312434 C 408.95458,-61.833914 409.15478,-61.243095 409.15479,-60.539974 C 409.15478,-59.46087 408.78368,-58.62591 408.0415,-58.035091 C 407.29931,-57.44427 406.24462,-57.14886 404.87744,-57.14886 C 404.41845,-57.14886 403.94482,-57.195247 403.45654,-57.28802 C 402.97314,-57.375911 402.47265,-57.510188 401.95508,-57.690852 L 401.95508,-59.119075 C 402.36523,-58.879816 402.81445,-58.699152 403.30273,-58.577083 C 403.79101,-58.455011 404.30127,-58.393976 404.8335,-58.393977 C 405.76123,-58.393976 406.46679,-58.577082 406.9502,-58.943294 C 407.43847,-59.309503 407.68261,-59.841729 407.68262,-60.539974 C 407.68261,-61.184501 407.45556,-61.68743 407.00146,-62.048763 C 406.55224,-62.414968 405.9248,-62.598074 405.11914,-62.598079 L 403.84473,-62.598079 L 403.84473,-63.813899 L 405.17773,-63.813899 C 405.90527,-63.813893 406.46191,-63.957936 406.84766,-64.246028 C 407.23339,-64.53899 407.42626,-64.958911 407.42627,-65.505794 C 407.42626,-66.067309 407.22607,-66.496996 406.82568,-66.794856 C 406.43017,-67.097581 405.86132,-67.248948 405.11914,-67.248958 C 404.71386,-67.248948 404.27929,-67.205003 403.81543,-67.117122 C 403.35156,-67.029222 402.84131,-66.892503 402.28467,-66.706966 L 402.28467,-68.025325 C 402.84619,-68.181564 403.37109,-68.298752 403.85938,-68.376888 C 404.35254,-68.455001 404.8164,-68.494064 405.25098,-68.494075 C 406.37402,-68.494064 407.26269,-68.237717 407.91699,-67.725032 C 408.57128,-67.21721 408.89843,-66.528734 408.89844,-65.659602 C 408.89843,-65.054126 408.72509,-64.541431 408.37842,-64.121516 C 408.03173,-63.706471 407.53857,-63.418385 406.89893,-63.257259"
         id="flowRoot11095" />
      <path
         transform="matrix(1.9946534,0,0,1.9946534,-565.85189,438.29959)"
         style="font-size:15px;font-style:normal;font-weight:normal;fill:#000000;fill-opacity:1;stroke:none;stroke-width:1px;stroke-linecap:butt;stroke-linejoin:miter;stroke-opacity:1;font-family:Bitstream Vera Sans"
         d="M 406.89893,-63.257259 C 407.60693,-63.105886 408.15868,-62.790945 408.5542,-62.312434 C 408.95458,-61.833914 409.15478,-61.243095 409.15479,-60.539974 C 409.15478,-59.46087 408.78368,-58.62591 408.0415,-58.035091 C 407.29931,-57.44427 406.24462,-57.14886 404.87744,-57.14886 C 404.41845,-57.14886 403.94482,-57.195247 403.45654,-57.28802 C 402.97314,-57.375911 402.47265,-57.510188 401.95508,-57.690852 L 401.95508,-59.119075 C 402.36523,-58.879816 402.81445,-58.699152 403.30273,-58.577083 C 403.79101,-58.455011 404.30127,-58.393976 404.8335,-58.393977 C 405.76123,-58.393976 406.46679,-58.577082 406.9502,-58.943294 C 407.43847,-59.309503 407.68261,-59.841729 407.68262,-60.539974 C 407.68261,-61.184501 407.45556,-61.68743 407.00146,-62.048763 C 406.55224,-62.414968 405.9248,-62.598074 405.11914,-62.598079 L 403.84473,-62.598079 L 403.84473,-63.813899 L 405.17773,-63.813899 C 405.90527,-63.813893 406.46191,-63.957936 406.84766,-64.246028 C 407.23339,-64.53899 407.42626,-64.958911 407.42627,-65.505794 C 407.42626,-66.067309 407.22607,-66.496996 406.82568,-66.794856 C 406.43017,-67.097581 405.86132,-67.248948 405.11914,-67.248958 C 404.71386,-67.248948 404.27929,-67.205003 403.81543,-67.117122 C 403.35156,-67.029222 402.84131,-66.892503 402.28467,-66.706966 L 402.28467,-68.025325 C 402.84619,-68.181564 403.37109,-68.298752 403.85938,-68.376888 C 404.35254,-68.455001 404.8164,-68.494064 405.25098,-68.494075 C 406.37402,-68.494064 407.26269,-68.237717 407.91699,-67.725032 C 408.57128,-67.21721 408.89843,-66.528734 408.89844,-65.659602 C 408.89843,-65.054126 408.72509,-64.541431 408.37842,-64.121516 C 408.03173,-63.706471 407.53857,-63.418385 406.89893,-63.257259"
         id="flowRoot11103" />
      <path
         transform="matrix(1.9946534,0,0,1.9946534,-602.57992,294.43731)"
         style="font-size:15px;font-style:normal;font-weight:normal;fill:#000000;fill-opacity:1;stroke:none;stroke-width:1px;stroke-linecap:butt;stroke-linejoin:miter;stroke-opacity:1;font-family:Bitstream Vera Sans"
         d="M 402.67285,-58.60638 L 405.08984,-58.60638 L 405.08984,-66.948665 L 402.46045,-66.421321 L 402.46045,-67.768977 L 405.0752,-68.296321 L 406.55469,-68.296321 L 406.55469,-58.60638 L 408.97168,-58.60638 L 408.97168,-57.361263 L 402.67285,-57.361263 L 402.67285,-58.60638"
         id="flowRoot11111" />
      <path
         transform="matrix(1.9946534,0,0,1.9946534,-653.66696,333.83008)"
         style="font-size:15px;font-style:normal;font-weight:normal;fill:#000000;fill-opacity:1;stroke:none;stroke-width:1px;stroke-linecap:butt;stroke-linejoin:miter;stroke-opacity:1;font-family:Bitstream Vera Sans"
         d="M 403.69092,-58.60638 L 408.85449,-58.60638 L 408.85449,-57.361263 L 401.91113,-57.361263 L 401.91113,-58.60638 C 402.47265,-59.187433 403.23681,-59.96624 404.20361,-60.942806 C 405.17529,-61.924246 405.78564,-62.55657 406.03467,-62.839778 C 406.5083,-63.371999 406.83788,-63.821217 407.02344,-64.187434 C 407.21386,-64.558521 407.30908,-64.92229 407.30908,-65.278743 C 407.30908,-65.859789 407.104,-66.333422 406.69385,-66.699641 C 406.28857,-67.065843 405.75878,-67.248948 405.10449,-67.248958 C 404.64062,-67.248948 404.1499,-67.168382 403.63232,-67.007259 C 403.11963,-66.846116 402.57031,-66.601976 401.98438,-66.274837 L 401.98438,-67.768977 C 402.58008,-68.008225 403.13672,-68.188888 403.6543,-68.31097 C 404.17187,-68.433029 404.6455,-68.494064 405.0752,-68.494075 C 406.208,-68.494064 407.11132,-68.210861 407.78516,-67.644466 C 408.45898,-67.07805 408.79589,-66.321215 408.7959,-65.373958 C 408.79589,-64.924732 408.71044,-64.497486 408.53955,-64.09222 C 408.37353,-63.691823 408.06835,-63.21819 407.62402,-62.671321 C 407.50195,-62.529714 407.11376,-62.119559 406.45947,-61.440852 C 405.80517,-60.767021 404.88232,-59.822198 403.69092,-58.60638"
         id="flowRoot11119" />
      <path
         transform="matrix(1.9946534,0,0,1.9946534,-668.98331,424.40101)"
         style="font-size:15px;font-style:normal;font-weight:normal;fill:#000000;fill-opacity:1;stroke:none;stroke-width:1px;stroke-linecap:butt;stroke-linejoin:miter;stroke-opacity:1;font-family:Bitstream Vera Sans"
         d="M 402.67285,-58.60638 L 405.08984,-58.60638 L 405.08984,-66.948665 L 402.46045,-66.421321 L 402.46045,-67.768977 L 405.0752,-68.296321 L 406.55469,-68.296321 L 406.55469,-58.60638 L 408.97168,-58.60638 L 408.97168,-57.361263 L 402.67285,-57.361263 L 402.67285,-58.60638"
         id="flowRoot11129" />
    </g>
  </g>
</svg>
